<mxfile host="app.diagrams.net" agent="Mozilla/5.0 (Windows NT 10.0; Win64; x64) AppleWebKit/537.36 (KHTML, like Gecko) Chrome/132.0.0.0 YaBrowser/25.2.0.0 Safari/537.36" version="26.1.1">
  <diagram name="Page-1" id="38b20595-45e3-9b7f-d5ca-b57f44c5b66d">
    <mxGraphModel dx="16678" dy="9664" grid="1" gridSize="10" guides="1" tooltips="1" connect="1" arrows="1" fold="1" page="1" pageScale="1" pageWidth="1169" pageHeight="827" background="none" math="0" shadow="0">
      <root>
        <mxCell id="0" />
        <mxCell id="1" parent="0" />
        <mxCell id="gGSf5Z8nFjBLewzf8c_W-1" value="" style="shape=image;verticalLabelPosition=bottom;labelBackgroundColor=default;verticalAlign=top;aspect=fixed;imageAspect=0;image=data:image/jpeg,/9j/4AAQSkZJRgABAQEAYABgAAD/2wBDAAMCAgMCAgMDAwMEAwMEBQgFBQQEBQoHBwYIDAoMDAsKCwsNDhIQDQ4RDgsLEBYQERMUFRUVDA8XGBYUGBIUFRT/2wBDAQMEBAUEBQkFBQkUDQsNFBQUFBQUFBQUFBQUFBQUFBQUFBQUFBQUFBQUFBQUFBQUFBQUFBQUFBQUFBQUFBQUFBT/wAARCALQA8ADASIAAhEBAxEB/8QAHwAAAQUBAQEBAQEAAAAAAAAAAAECAwQFBgcICQoL/8QAtRAAAgEDAwIEAwUFBAQAAAF9AQIDAAQRBRIhMUEGE1FhByJxFDKBkaEII0KxwRVS0fAkM2JyggkKFhcYGRolJicoKSo0NTY3ODk6Q0RFRkdISUpTVFVWV1hZWmNkZWZnaGlqc3R1dnd4eXqDhIWGh4iJipKTlJWWl5iZmqKjpKWmp6ipqrKztLW2t7i5usLDxMXGx8jJytLT1NXW19jZ2uHi4+Tl5ufo6erx8vP09fb3+Pn6/8QAHwEAAwEBAQEBAQEBAQAAAAAAAAECAwQFBgcICQoL/8QAtREAAgECBAQDBAcFBAQAAQJ3AAECAxEEBSExBhJBUQdhcRMiMoEIFEKRobHBCSMzUvAVYnLRChYkNOEl8RcYGRomJygpKjU2Nzg5OkNERUZHSElKU1RVVldYWVpjZGVmZ2hpanN0dXZ3eHl6goOEhYaHiImKkpOUlZaXmJmaoqOkpaanqKmqsrO0tba3uLm6wsPExcbHyMnK0tPU1dbX2Nna4uPk5ebn6Onq8vP09fb3+Pn6/9oADAMBAAIRAxEAPwD9U6KKKACiiigAooooAKKKKACiiigAooooAKKKKACiiigAooooAKKKKACiiigAooooAKKKKACiiigAooooAKKKKACiiigAooooAKKKKACiiigAooooAKKKKACiiigAooooAKKKKACiiigAooooAKKKKACiiigAooooAKKKKACiiigAooooAKKKKACiiigAooooAKKKKACiiigAooooAKKKKACiiigAooooAKKKKACiiigAooooAKKKKACiiigAooooAKKKKACiiigAooooAKKKKACiiigAooooAKKKKACiiigAooooAKKKKACiiigAooooAKKKKACiiigAooooAKKKKACiiigAooooAKKKKACiiigAooooAKKKKACiiigAooooAKKKKACiiigAooooAKKKKACiiigAooooAKKKKACiiigAooooAKKKKACiiigAooooAKKKKACiiigAooooAKKKKACiiigAooooAKKKKACiiigAooooAKKKKACiiigAooooAKKKKACiiigAooooAKKKKACiiigAooooAKKKKACiiigAooooAKKKKACiiigAooooAKKKKACiiigAooooAKKKKACiiigAooooAKKKKACiiigAooooAKKKKACiiigAooooAKKKKACiiigAooooAKKKKACiiigAooooAKKKKACiiigAooooAKKKKACiiigAooooAKKKKACiiigAooooAKKKKACiiigAooooAKKKKACiiigAooooAKKKKACiiigAooooAKKKKACiiigAooooAKKKKACiiigAooooAKKKKACiiigAooooAKKKKACiiigAooooAKKKKACiiigAooooAKKKKACiiigAooooAKKKKACiiigAooooAKKKKACiiigAooooAKKKKACiiigAooooAKKKKACiiigAooooAKKKKACiiigAooooAKKKKACiiigAooooAKKKKACiiigAooooAKKKKACiiigAooooAKKKKACiiigAooooAKKKKACiiigAooooAKKKKACiiigAooooAKKKKACiiigAooooAKKKKACiiigAooooAKKKKACiiigAooooAKKKKACiiigAooooAKKKKACiiigAooooAKKKKACiiigAooooAKKKKACiiigAooooAKKKKACiiigAooooAKKKKACiiigAooooAKKKKACiiigAooooAKKKKACiiigAooooAKKKKACiiigAooooAKKKKACiiigAooooAKKKKACiiigAooooAKKKKACiiigAooooAKKKKACiiigAooooAKKKKACiiigAooooAKKKKACiiigAooooAKKKKACiiigAooooAKKKKACiiigAooooAKKKKACiiigAooooAKKKKACiiigAooooAKKKKACiiigAooooAKKKKACiiigAooooAKKKKACiiigAooooAKKKKACiiigAooooAKKKKACiiigAooooAKKKKACiiigAooooAKKKKACiiigAooooAKKKKACiiigAooooAKKKKACiiigAooooAKKKKACiiigAooooAKKKKACiiigAooooAKKKKACiiigAooooAKKKKACiiigAooooAKKKKACiiigAooooAKKKKACiiigAooooAKKKKACiiigAooooAKKKKACiiigAooooAKKKKACiiigAooooAKKKKACiiigAooooAKKKKACiiigAooooAKKKKACiiigAooooAKKKKACiiigAooooAKKKKACiiigAooooAKKKKACiiigAooooAKKKKACiiigAooooAKKKKACiiigAooooAKKKKACiiigAooooAKKKKACiiigAooooAKKKKACiiigAooooAKKKKACiiigAooooAKKKKACiiigAooooAKKKKACiiigAooooAKKKKACiiigAooooAKKKKACiiigAooooAKKKKACiiigAooooAKKKKACiiigAooooAKKKKACiiigAooooAKKKKACiiigAooooAKKKKACiiigAooooAKKKKACiiigAooooAKKKKACiiigAooooAKKKKACiiigAooooAKKKKACiiigAooooAKKKKACiiigAooooAKKKKACiiigAooooAKKKKACiiigAooooAKKKKACiiigAooooAKKKKACiiigAooooAKKKKACiiigAooooAKKKKACiiigAooooAKKKKACiiigAooooAKKKKACiiigAooooAKKKKACiiigAooooAKKKKACiiigAooooAKKKKACiiigAooooAKKKKACiiigAooooAKKKKACiiigAooooAKKKKACiiigAooooAKKKKACiiigAooooAKKKKACiiigAooooAKKKKACiiigAooooAKKKKACiiigAooooAKKKKACiiigAooooAKKKKACiiigAooooAKKKKACiiigAooooAKKKKACiiigAooooAKKKKACiiigAooooAKKKKACiiigAooooAKKKKACiiigAooooAKKKKACiiigAooooAKKKKACiiigAooooAKKKKACiiigAooooAKKKKACiiigAooooAKKKKACiiigAooooAK5/4heNrH4a+AfEvi7U4rifTdA0y51W6itFVpnigiaV1QMygsVQ4BIGcZI610FeVftY/wDJrPxk/wCxM1n/ANIZqAPFPCf7WH7RPjjwro3iTRP2UPtui6xZQ6hY3P8AwsbTo/OgljWSN9rxBlyrA4YAjPIBrW/4aI/ad/6NG/8AMlaX/wDG69V/ZO/5NZ+Df/YmaN/6Qw16rQB8q/8ADRH7Tv8A0aN/5krS/wD43R/w0R+07/0aN/5krS//AI3X1VRQB8q/8NEftO/9Gjf+ZK0v/wCN0f8ADRH7Tv8A0aN/5krS/wD43X1VRQB8q/8ADRH7Tv8A0aN/5krS/wD43R/w0R+07/0aN/5krS//AI3X1VRQB8q/8NEftO/9Gjf+ZK0v/wCN0f8ADRH7Tv8A0aN/5krS/wD43X1VRQB8q/8ADRH7Tv8A0aN/5krS/wD43R/w0R+07/0aN/5krS//AI3X1VRQB8q/8NEftO/9Gjf+ZK0v/wCN0f8ADRH7Tv8A0aN/5krS/wD43X1VRQB8q/8ADRH7Tv8A0aN/5krS/wD43R/w0R+07/0aN/5krS//AI3X1VRQB8q/8NEftO/9Gjf+ZK0v/wCN0f8ADRH7Tv8A0aN/5krS/wD43X1VRQB8q/8ADRH7Tv8A0aN/5krS/wD43XKfFL9tn47fBfwJqfjLxl+yz/Y3hvTfK+13v/CwrCfy/MlSJPkihZzl5EHCnGcngE19q18q/wDBUf8A5MT+Jv8A3DP/AE6WlAB/w0R+07/0aN/5krS//jdH/DRH7Tv/AEaN/wCZK0v/AON19VUUAfKv/DRH7Tv/AEaN/wCZK0v/AON0f8NEftO/9Gjf+ZK0v/43X1VRQB8q/wDDRH7Tv/Ro3/mStL/+N0f8NEftO/8ARo3/AJkrS/8A43X1VRQB8q/8NEftO/8ARo3/AJkrS/8A43R/w0R+07/0aN/5krS//jdfVVFAHx/bftYftE3nirUfDcX7KG/WtPsrbULm2/4WNpw8uC4knjhfcYtp3NazjAJI2cgArnW/4aI/ad/6NG/8yVpf/wAbr1Xw5/ydN8Q/+xM8M/8Apdr1eq0AfKv/AA0R+07/ANGjf+ZK0v8A+N0f8NEftO/9Gjf+ZK0v/wCN19VUUAfKv/DRH7Tv/Ro3/mStL/8AjdH/AA0R+07/ANGjf+ZK0v8A+N19VUUAfKv/AA0R+07/ANGjf+ZK0v8A+N0f8NEftO/9Gjf+ZK0v/wCN19VUUAfKv/DRH7Tv/Ro3/mStL/8AjdH/AA0R+07/ANGjf+ZK0v8A+N19VUUAfKv/AA0R+07/ANGjf+ZK0v8A+N1k+Jv2sP2ifB+mw3+r/sofZLSa9tNPST/hY2nPme5uI7aBMLET8000a56DdkkAEj7Aryr9pb/knWkf9jn4T/8AUh06gDyr/hoj9p3/AKNG/wDMlaX/APG6P+GiP2nf+jRv/MlaX/8AG6+qqKAPlX/hoj9p3/o0b/zJWl//ABuj/hoj9p3/AKNG/wDMlaX/APG6+qqKAPlX/hoj9p3/AKNG/wDMlaX/APG6P+GiP2nf+jRv/MlaX/8AG6+qqKAPlX/hoj9p3/o0b/zJWl//ABuj/hoj9p3/AKNG/wDMlaX/APG6+qqKAPj/AEb9rD9onxBqWu2Fh+yh9ou9DvV0/UI/+FjacvkTtbw3ITJiAb9zcwtlcj58ZyCBrf8ADRH7Tv8A0aN/5krS/wD43Xqvwb/5KL8dv+xztv8A1HtGr1WgD5V/4aI/ad/6NG/8yVpf/wAbo/4aI/ad/wCjRv8AzJWl/wDxuvqqigD5V/4aI/ad/wCjRv8AzJWl/wDxuj/hoj9p3/o0b/zJWl//ABuvqqigD4/8WftYftE+B/Cus+JNb/ZQ+xaLo9lNqF9c/wDCxtOk8mCKNpJH2pEWbCqThQSccAmtb/hoj9p3/o0b/wAyVpf/AMbr1X9rH/k1n4yf9iZrP/pDNXqtAHyr/wANEftO/wDRo3/mStL/APjdH/DRH7Tv/Ro3/mStL/8AjdfVVFAHyr/w0R+07/0aN/5krS//AI3R/wANEftO/wDRo3/mStL/APjdfVVFAHyr/wANEftO/wDRo3/mStL/APjdH/DRH7Tv/Ro3/mStL/8AjdfVVFAHyr/w0R+07/0aN/5krS//AI3R/wANEftO/wDRo3/mStL/APjdfVVFAHyr/wANEftO/wDRo3/mStL/APjdH/DRH7Tv/Ro3/mStL/8AjdfVVFAHyr/w0R+07/0aN/5krS//AI3R/wANEftO/wDRo3/mStL/APjdfVVFAHyr/wANEftO/wDRo3/mStL/APjdH/DRH7Tv/Ro3/mStL/8AjdfVVFAHyr/w0R+07/0aN/5krS//AI3R/wANEftO/wDRo3/mStL/APjdfVVFAHyr/wANEftO/wDRo3/mStL/APjdH/DRH7Tv/Ro3/mStL/8AjdfVVFAHyr/w0R+07/0aN/5krS//AI3R/wANEftO/wDRo3/mStL/APjdfVVFAHyr/wANEftO/wDRo3/mStL/APjdZNz+1h+0TZ+KtO8Ny/sobNa1CyudQtrb/hY2nHzILeSCOZ9wi2ja11AMEgnfwCA2PsCvKvEf/J03w8/7EzxN/wCl2g0AeVf8NEftO/8ARo3/AJkrS/8A43R/w0R+07/0aN/5krS//jdfVVFAHyr/AMNEftO/9Gjf+ZK0v/43WTo37WH7RPiDUtdsLD9lD7Rd6Herp+oR/wDCxtOXyJ2t4bkJkxAN+5uYWyuR8+M5BA+wK8q+Df8AyUX47f8AY523/qPaNQB5V/w0R+07/wBGjf8AmStL/wDjdH/DRH7Tv/Ro3/mStL/+N19VUUAfKv8Aw0R+07/0aN/5krS//jdH/DRH7Tv/AEaN/wCZK0v/AON19VUUAfH/AIs/aw/aJ8D+FdZ8Sa3+yh9i0XR7KbUL65/4WNp0nkwRRtJI+1IizYVScKCTjgE0eE/2sP2ifHHhXRvEmifsofbdF1iyh1Cxuf8AhY2nR+dBLGskb7XiDLlWBwwBGeQDXtf7WP8Ayaz8ZP8AsTNZ/wDSGaj9k7/k1n4N/wDYmaN/6Qw0AeVf8NEftO/9Gjf+ZK0v/wCN0f8ADRH7Tv8A0aN/5krS/wD43X1VRQB8q/8ADRH7Tv8A0aN/5krS/wD43R/w0R+07/0aN/5krS//AI3X1VRQB8q/8NEftO/9Gjf+ZK0v/wCN0f8ADRH7Tv8A0aN/5krS/wD43X1VRQB8q/8ADRH7Tv8A0aN/5krS/wD43R/w0R+07/0aN/5krS//AI3X1VRQB8q/8NEftO/9Gjf+ZK0v/wCN0f8ADRH7Tv8A0aN/5krS/wD43X1VRQB8q/8ADRH7Tv8A0aN/5krS/wD43R/w0R+07/0aN/5krS//AI3X1VRQB8VeAf22fjt8UP8AhI/+EZ/ZZ/tP/hHdaufD2qf8XCsIvs9/b7fOh/eQru271+Zcqc8E11f/AA0R+07/ANGjf+ZK0v8A+N0fsC/83G/9lm8R/wDtvX1VQB8q/wDDRH7Tv/Ro3/mStL/+N0f8NEftO/8ARo3/AJkrS/8A43X1VRQB8q/8NEftO/8ARo3/AJkrS/8A43R/w0R+07/0aN/5krS//jdfVVFAHyr/AMNEftO/9Gjf+ZK0v/43VT/hsT4qeC/GXgbT/il+zzceAvD3ivxBa+GbfWrbxlY6q0d7chxADBEikqWQ7m3DaoYjccI31rXyr+31/wA25f8AZZvDn/txQB9VUUUUAFFFFABRRRQAUUUUAFFFFABXlX7WP/JrPxk/7EzWf/SGavVa8q/ax/5NZ+Mn/Ymaz/6QzUAH7J3/ACaz8G/+xM0b/wBIYa9Vryr9k7/k1n4N/wDYmaN/6Qw16rQAUUUUAFFFFABRRRQAUUUUAFFFFABRRRQAUUUUAFFFFABXyr/wVH/5MT+Jv/cM/wDTpaV9VV8q/wDBUf8A5MT+Jv8A3DP/AE6WlAH1VRRRQAUUUUAFFFFABRRRQB5V4c/5Om+If/YmeGf/AEu16vVa8q8Of8nTfEP/ALEzwz/6Xa9XqtABRRRQAUUUUAFFFFABRRRQAV5V+0t/yTrSP+xz8J/+pDp1eq15V+0t/wAk60j/ALHPwn/6kOnUAeq0UUUAFFFFABRRRQAUUUUAeVfBv/kovx2/7HO2/wDUe0avVa8q+Df/ACUX47f9jnbf+o9o1eq0AFFFFABRRRQB5V+1j/yaz8ZP+xM1n/0hmr1WvKv2sf8Ak1n4yf8AYmaz/wCkM1eq0AFFFFABRRRQAUUUUAFFFFABRRRQAUUUUAFFFFABRRRQAUUUUAFFFFABXlXiP/k6b4ef9iZ4m/8AS7Qa9VryrxH/AMnTfDz/ALEzxN/6XaDQB6rRRRQAV5V8G/8Akovx2/7HO2/9R7Rq9Vryr4N/8lF+O3/Y523/AKj2jUAeq0UUUAFFFFAHgnxk0f40fE34beOPBdr4O8B2Vt4h0m+0eLUZvGd6zxJPC8QlaIaTgkBwxQP2xu70fBvR/jR8Mvht4H8F3Xg7wHe23h7SbHR5dRh8Z3qvKkEKRGVYjpOASELBC/fG7vXvdFABRRRQAUUUUAFFFFABRRRQAUUUUAFFFFAHyr+wL/zcb/2WbxH/AO29fVVfKv7Av/Nxv/ZZvEf/ALb19VUAFFFFABRRRQAV8q/t9f8ANuX/AGWbw5/7cV9VV8q/t9f825f9lm8Of+3FAH1VRRRQAUUUUAFFFFABRRRQAUUUUAFeVftY/wDJrPxk/wCxM1n/ANIZq9Vryr9rH/k1n4yf9iZrP/pDNQAfsnf8ms/Bv/sTNG/9IYa9Vryr9k7/AJNZ+Df/AGJmjf8ApDDXqtABRRRQAUUUUAFFFFABRRRQAUUUUAFFFFABRRRQAUUUUAFfKv8AwVH/AOTE/ib/ANwz/wBOlpX1VXyr/wAFR/8AkxP4m/8AcM/9OlpQB9VUUUUAFFFFABRRRQAVzPjjUPGOn2ts3g/QtD125ZyJ49c1qbTEjTHBRorS5LnPYqv1PSumooA+f9N0n436f8VPEPjL/hCvh/J/a+jaZpH2L/hN74eV9knv5fM3/wBj/Nv+3427Rt8rOTuwvrXgfUPGOoWty3jDQtD0K5VwII9D1qbU0kTHJdpbS2KHPYK31HSumooAKKKKACiiigAooooAKKKKAM/xBNqtvo13LollZ6jqypm2tdQu3tIJH9HlSKVkHuI2+leH/EvSfjf8RPDtnpX/AAhXw/0/7PrWk6v53/Cb30u77FqNve+Xj+xxjf8AZ9m7Py792Gxg/QFFAHCeENY+Jl7rKxeKfCPhPRtJ2MWutH8U3WoTh/4QIpNOgUg9z5nHoa7uiigAooooAKKKKACiiigDyr4N/wDJRfjt/wBjnbf+o9o1eq15V8G/+Si/Hb/sc7b/ANR7Rq9VoAKKKKACiiigDyr9rH/k1n4yf9iZrP8A6QzV6rXlX7WP/JrPxk/7EzWf/SGavVaACiiigAooooAKKKKACiiigAooooAKKKKACiiigAooooAKKKKACiiigAryrxH/AMnTfDz/ALEzxN/6XaDXqteVeI/+Tpvh5/2Jnib/ANLtBoA9VooooAK8q+Df/JRfjt/2Odt/6j2jV6rXkU3wx+IWg+NfGWseDvGvhnTNP8TalFqs9lrnha41CWGZLG1syFli1G3GwpZxtgpkFm5IxgA9doryr/hHPjf/ANFD+H//AIQd9/8ALmj/AIRz43/9FD+H/wD4Qd9/8uaAPVaK8q/4Rz43/wDRQ/h//wCEHff/AC5o/wCEc+N//RQ/h/8A+EHff/LmgDE+J3xW+LXwy8F+LPFt18O/Bd7onh7T7vVJRD42u1uZbeCN5TtQ6TtDlUOFL4ycbsc0fDH4rfFr4m+C/Cfi21+Hfguy0TxDp9pqkQm8bXbXMVvPGko3INJ2lwrjKh8ZGN2Oa4/9prQfjDD+zb8V5NT8deB7zTV8Jas11b2ngq8gmliFnLvRJG1ZwjFcgMUcAkEq2MH0v9k7/k1n4N/9iZo3/pDDQB6rRRRQAUUUUAFFfL/7Wfjz4kx/GH4IfC34c+M7f4fXHjmbWZbzxC2jw6nNCtjZrMkawzEIVcu248NlUIYAMr1f+Gd/2nf+juf/ADGul/8AxygD6qor5V/4Z3/ad/6O5/8AMa6X/wDHKP8Ahnf9p3/o7n/zGul//HKAPoTT/HEGofEnXfB620iXOk6Tp+rPclhskS7mvYlQDqCpsXJ/3x6Gumr5q/Zx8G+O/A/x9+Jth8QviL/ws3WpPDPhyeHV/wCw4NJ8mA3WtKsHlQkq2GWRt55PmY6KK+laAOZ0/wAcQah8Sdd8HrbSJc6TpOn6s9yWGyRLua9iVAOoKmxcn/fHoa6avlX4ofDv4n+Pv2pvFH/CuPi5/wAKr+yeDNA+3/8AFNWusfb919rXlf69h5WzbJ9373mc/dFH/DO/7Tv/AEdz/wCY10v/AOOUAH7Av/Nxv/ZZvEf/ALb19VV8f/8ABNnTtU0fwr8dLDW9X/4SDWrX4s67Bfav9mW2+2zrHarJP5SHbHvYFti8LuwOBX2BQAUUUUAFFFFABXyr+31/zbl/2Wbw5/7cV9VV8q/t9f8ANuX/AGWbw5/7cUAfVVFFFABRRRQAUUUUAFFFFABRRRQAV5V+1j/yaz8ZP+xM1n/0hmr1WvKv2sf+TWfjJ/2Jms/+kM1AB+yd/wAms/Bv/sTNG/8ASGGvVa8q/ZO/5NZ+Df8A2Jmjf+kMNeq0AFFFFABRRRQAUUUUAFFFFABRRRQAUUUUAFFFFABRRRQAV8q/8FR/+TE/ib/3DP8A06WlfVVfKv8AwVH/AOTE/ib/ANwz/wBOlpQB9VUUUUAFFFFABRRRQAUUVzPjjwnqniy1totL8aa54Mkhcs8+hw2EjzAjG1xd206gDr8oU+9AHTUV866T4Q8eX3xo8VeEZPjj44Gm6V4f0jVYJV0/w/5zS3dzqUUisf7LwVC2UW0AAgs+ScgD2TwP4T1Twna3MWqeNNc8ZyTOGSfXIbCN4QBjagtLaBSD1+YMfegDpqKKKACiiigAooooAKKKKACis/xBplzrOjXdlaateaFczJtj1LT0hae3P95BNHJGT/vow9q8F+L3hDx54A8KWGp6f8cfHE1xP4g0PSmW50/w+yiK81W1s5WAXSwdwjuHKnOAwUkEZBAPoqiuE8IfDrxB4a1lb3Ufij4s8WWwRlOm6xa6RHASejE21hDJkdsPj1Bru6ACiiigAooooAKKKKAPKvg3/wAlF+O3/Y523/qPaNXqteVfBv8A5KL8dv8Asc7b/wBR7Rq9VoAKKKKACiiobuF7i1mijnktZJEZFnhCl4yRgMoYFcjqMgjjkGgDzD9rH/k1n4yf9iZrP/pDNXqteKeLP2cta8ceFdZ8N638bPiBe6LrFlNp99bfZdAj86CWNo5E3JpYZcqxGVIIzwQa6bw/8LfEuj6zaXt38YPGmu20L75NN1C00RYLgf3XMOnRyAf7jqfegD0WiiigAooooAKKKKACiiigAooooAKKKKACiiigAooooAKKKKACiiigAryrxH/ydN8PP+xM8Tf+l2g16rXlXiP/AJOm+Hn/AGJnib/0u0GgD1WiiigAooooAKKKKACiiigDyr9rH/k1n4yf9iZrP/pDNR+yd/yaz8G/+xM0b/0hho/ax/5NZ+Mn/Ymaz/6QzUfsnf8AJrPwb/7EzRv/AEhhoA9VooooAKKKKAPlX9oj/k+z9kb/ALm7/wBNcVfVVfKv7RH/ACfZ+yN/3N3/AKa4q+qqACiiigDmdP8AA8Gn/EnXfGC3Mj3OraTp+kvbFRsjS0mvZVcHqSxvnB/3B6mumoooA5nT/A8Gn/EnXfGC3Mj3OraTp+kvbFRsjS0mvZVcHqSxvnB/3B6msrxfo/xMvdZaXwt4u8J6NpOxQtrrHha61CcP/ETLHqMCkHsPL49TXd0UAfNXwh/Zx+KfwX/4TX+xPib4Puv+Es8TXviu+/tDwPdP5d1dbPMSLZqy4iHljaG3MMnLGvoXw/Dqtvo1pFrd7Z6jqypi5utPtHtIJH9UieWVkHsZG+taFFABRRRQAUUUUAFfKv7fX/NuX/ZZvDn/ALcV9VV8q/t9f825f9lm8Of+3FAH1VRRRQAUUUUAFFFFABRRRQAUUUUAFeVftY/8ms/GT/sTNZ/9IZq9Vryr9rH/AJNZ+Mn/AGJms/8ApDNQAfsnf8ms/Bv/ALEzRv8A0hhr1WvKv2Tv+TWfg3/2Jmjf+kMNeq0AFFFFABRRRQAUUUUAFFFFABRRRQAUUUUAFFFFABRRRQAV8q/8FR/+TE/ib/3DP/TpaV9VV8q/8FR/+TE/ib/3DP8A06WlAH1VRRRQAUUUUAFFFFABRRRQB5V4c/5Om+If/YmeGf8A0u16vVa8q8Of8nTfEP8A7Ezwz/6Xa9XqtABRRRQAUUUUAFFFFABRRRQAV5V+0t/yTrSP+xz8J/8AqQ6dXqteVftLf8k60j/sc/Cf/qQ6dQB6rRRRQAUUUUAFFFFABRRRQB5V8G/+Si/Hb/sc7b/1HtGr1WvKvg3/AMlF+O3/AGOdt/6j2jV6rQAUUUUAFFFFABRRRQAUUUUAFFFFABRRRQAUUUUAFFFFABRRRQAUUUUAFFFFABRRRQAUUUUAFeVeI/8Ak6b4ef8AYmeJv/S7Qa9VryrxH/ydN8PP+xM8Tf8ApdoNAHqtFFFABRRRQAUUUUAFFFFAHlX7WP8Ayaz8ZP8AsTNZ/wDSGaj9k7/k1n4N/wDYmaN/6Qw0ftY/8ms/GT/sTNZ/9IZqP2Tv+TWfg3/2Jmjf+kMNAHqtFFFABRRRQB8q/tEf8n2fsjf9zd/6a4q+qq+Vf2iP+T7P2Rv+5u/9NcVfVVABRRRQAUUUUAFcJ4v+HXiDxLrLXunfFHxZ4TtiiqNN0e10iSAEdWBubCaTJ75fHoBXd0UAfH/7Mc3xK+NH/C2P7b+NnjC1/wCET+IGreFLH+z9N0FPMtbXyvLeXfprZlPmHcV2qcDCivrDw/plzo2jWlld6tea7cwptk1LUEhWe4P95xDHHGD/ALiKPavjD9jv4Q6F4/1X9ojUNTv/ABRa3Efxg8RW6ponizVdKhKhoGBMVpcxIzZY/OVLEAAnCgD6K/4Zp8I/9Bf4gf8Ahx/EP/ydQB6rRXlX/DNPhH/oL/ED/wAOP4h/+TqP+GafCP8A0F/iB/4cfxD/APJ1AHqtFeVf8M0+Ef8AoL/ED/w4/iH/AOTqP+GafCP/AEF/iB/4cfxD/wDJ1AHqtfKv7fX/ADbl/wBlm8Of+3Feq/8ADNPhH/oL/ED/AMOP4h/+Tq+df2xPhDoXgDVf2d9Q0y/8UXVxJ8YPDtuya34s1XVYQpadiRFd3MqK2VHzhQwBIBwxBAPt+iiigAooooAKKKKACiiigAooooAK8q/ax/5NZ+Mn/Ymaz/6QzV6rXlX7WP8Ayaz8ZP8AsTNZ/wDSGagA/ZO/5NZ+Df8A2Jmjf+kMNeq15V+yd/yaz8G/+xM0b/0hhr1WgAooooAKKKKACiiigAooooAKKKKACiiigAooooAKKKKACvlX/gqP/wAmJ/E3/uGf+nS0r6qr5V/4Kj/8mJ/E3/uGf+nS0oA+qqK8q/4ax+CH/RZPh/8A+FRY/wDx2j/hrH4If9Fk+H//AIVFj/8AHaAPVaK+b/jJ+0h8M/Fnhvw/pHhP4o+E9Z1288YeGI4bDRvENrPdTJ/btj5qrHHIWYeXv3AD7u7PGa+kKACiivD/AIrfE7w58Mv2iPh3deLfFml+E9EuvC3iKMTa1qMdnbS3Au9FKLmRlVnC+aQOuN+OM0Ae4UV5V/w1j8EP+iyfD/8A8Kix/wDjtH/DWPwQ/wCiyfD/AP8ACosf/jtAB4c/5Om+If8A2Jnhn/0u16vVa+X9A/ab+D0P7SXjrU5Piv4HTTbnwl4etoLxvEdmIZZY7zWmkjV/MwzIs0RZQcgSIT94Z9L/AOGsfgh/0WT4f/8AhUWP/wAdoA9Voryr/hrH4If9Fk+H/wD4VFj/APHaP+Gsfgh/0WT4f/8AhUWP/wAdoA9Voryr/hrH4If9Fk+H/wD4VFj/APHaP+Gsfgh/0WT4f/8AhUWP/wAdoA9Vory/9lm7n1D9mP4Q3V1NJc3M3g/R5JZpmLPI5soSWYnkkkkkmvUKACivL/2prufT/wBmP4vXVrNJbXMPg/WJIpoWKvG4spiGUjkEEAgiov8AhrH4If8ARZPh/wD+FRY//HaAPVa8q/aW/wCSdaR/2OfhP/1IdOo/4ax+CH/RZPh//wCFRY//AB2vNP2g/wBpv4Pa14D0q30/4r+B7+4Txb4YuWitvEdnIyxRa7YSyyELISFSNHdm6KqsTgAmgD6goryr/hrH4If9Fk+H/wD4VFj/APHaP+Gsfgh/0WT4f/8AhUWP/wAdoA9VorwTRvjJ4O+Jv7Tng618F+OND8WW1r4P8QSX0Og6vDeJE5vdFETSiJ2CkjzQpb/bx3r3ugAoorwTWfjJ4O+GX7TnjG18aeOND8J2114P8PyWMOvavDZpK4vdaErRCV1DEDygxX/Yz2oA97oryr/hrH4If9Fk+H//AIVFj/8AHaP+Gsfgh/0WT4f/APhUWP8A8doAPg3/AMlF+O3/AGOdt/6j2jV6rXy/8J/2m/g9pvjz4z3F38V/A9rb3/i23ubOWbxHZotzENC0mIyRkyYdRJFIm4ZG6Nh1UivS/wDhrH4If9Fk+H//AIVFj/8AHaAPVaK8k/Zd8QweLPhTc6vaanHrNjeeKfE0lpfwzieKa3/t6/8AJaOQEhk8vZtIONuMcYr1ugAqG7tUvbWa3kMixzI0bNDI0bgEYO11IZT6EEEdQamr5l/Zv/am+Eun/s7/AAutdd+L3gu21uHwtpcd/DqHia0W5juBaRCRZQ8u4OGDBg3Oc55oAl/aE+CWi+B/gF8S/EmieIfiBZa1o/hnU9Qsbn/hYevyeTPFaySRvte9KthlBwwIOOQRXqHh/wCAvhrw1rNpqlpqfjSa5tX8yOPUPHWt3kBP+3DNePHIPZ1I9q8k/aa/ab+D2vfs2/FfTNM+K/gfUdSvfCWrW1rZ2niOzlmnlezlVI0RZCWZmIAUDJJAFel/8NY/BD/osnw//wDCosf/AI7QB6rRXlX/AA1j8EP+iyfD/wD8Kix/+O0f8NY/BD/osnw//wDCosf/AI7QB6rRXlX/AA1j8EP+iyfD/wD8Kix/+O0f8NY/BD/osnw//wDCosf/AI7QB6rRXlX/AA1j8EP+iyfD/wD8Kix/+O0f8NY/BD/osnw//wDCosf/AI7QB6rRXh/wp+J3hz4m/tEfES68JeLNL8WaJa+FvDsZm0XUY7y2iuDd60XXMbMquV8okdcbM8Yr3CgAoor568L/AB68A/D34rfGnSPGnxF8N+Gr5fFNrJa2Gva5b2kot20HScMkcrg7DJ5vIGC2/vmgD6Foryr/AIax+CH/AEWT4f8A/hUWP/x2j/hrH4If9Fk+H/8A4VFj/wDHaAPVaK8q/wCGsfgh/wBFk+H/AP4VFj/8do/4ax+CH/RZPh//AOFRY/8Ax2gD1WivKv8AhrH4If8ARZPh/wD+FRY//HaP+Gsfgh/0WT4f/wDhUWP/AMdoA9Voryr/AIax+CH/AEWT4f8A/hUWP/x2j/hrH4If9Fk+H/8A4VFj/wDHaAPVaK8q/wCGsfgh/wBFk+H/AP4VFj/8do/4ax+CH/RZPh//AOFRY/8Ax2gD1WvKvEf/ACdN8PP+xM8Tf+l2g0f8NY/BD/osnw//APCosf8A47Xmmv8A7Tfwem/aS8C6nH8V/A76bbeEvENtPeL4jszDFLJeaK0cbP5mFZ1hlKqTkiNyPunAB9QUV4Jo3xk8HfE39pzwda+C/HGh+LLa18H+IJL6HQdXhvEic3uiiJpRE7BSR5oUt/t47173QAUUV89eF/j14B+HvxW+NOkeNPiL4b8NXy+KbWS1sNe1y3tJRbtoOk4ZI5XB2GTzeQMFt/fNAH0LRXlX/DWPwQ/6LJ8P/wDwqLH/AOO0f8NY/BD/AKLJ8P8A/wAKix/+O0Aeq0V5V/w1j8EP+iyfD/8A8Kix/wDjtH/DWPwQ/wCiyfD/AP8ACosf/jtAB+1j/wAms/GT/sTNZ/8ASGavNP2Zf2m/g9oP7Nvwo0zU/iv4H07UrLwlpNtdWd34js4poJUs4leN0aQFWVgQVIyCCDR+01+038Hte/Zt+K+maZ8V/A+o6le+EtWtrWztPEdnLNPK9nKqRoiyEszMQAoGSSAKP2Zf2Zfg9r37Nvwo1PU/hP4H1HUr3wlpNzdXl34cs5Zp5Xs4meR3aMlmZiSWJySSTQB6X/w1j8EP+iyfD/8A8Kix/wDjtH/DWPwQ/wCiyfD/AP8ACosf/jtH/DJ3wQ/6I38P/wDwl7H/AONUf8MnfBD/AKI38P8A/wAJex/+NUAH/DWPwQ/6LJ8P/wDwqLH/AOO0f8NY/BD/AKLJ8P8A/wAKix/+O0f8MnfBD/ojfw//APCXsf8A41R/wyd8EP8Aojfw/wD/AAl7H/41QB8//E74seCPih+3Z+yp/wAIb4y8P+LfsP8Awlf2v+wtUgvfs+/S02eZ5Ttt3bHxnGdrY6GvtWvir4nfCfwR8L/27P2VP+EN8G+H/CX27/hK/tf9haXBZfaNmlps8zykXdt3vjOcbmx1NfatABRRRQAUUUUAFFFFAHyr+wL/AM3G/wDZZvEf/tvX1VXyr+wL/wA3G/8AZZvEf/tvXrX7Od3Pe/D/AFaS4mknkXxh4qjDSsWIRNf1BUXJ7KqhQOwAHagD1CiivL/2WbufUP2Y/hDdXU0lzczeD9HklmmYs8jmyhJZieSSSSSaAPUKKKKACvlX9vr/AJty/wCyzeHP/bivqqvlX9vr/m3L/ss3hz/24oA+qqKKKACiiigAooooAKKKKACiiigAryr9rH/k1n4yf9iZrP8A6QzV6rXlX7WP/JrPxk/7EzWf/SGagA/ZO/5NZ+Df/YmaN/6Qw16rXlX7J3/JrPwb/wCxM0b/ANIYa9VoAKKKKACiiigAooooAKKKKACiiigAooooAKKKKACiiigAr5V/4Kj/APJifxN/7hn/AKdLSvpTxZ4p0vwP4V1nxJrd19i0XR7KbUL658t5PJgijaSR9qAs2FUnCgk44BNfnX+3r+3r8CfjR+yf458G+DfHP9s+JNS+w/ZLL+yL+DzPLv7eV/nlgVBhI3PLDOMDkgUAfav/AAyd8EP+iN/D/wD8Jex/+NUf8MnfBD/ojfw//wDCXsf/AI1Xn/hP/go9+zt448VaN4b0T4h/bda1i9h0+xtv7E1GPzp5ZFjjTc9uFXLMBliAM8kCvpWgD5q+Nv7Pfws8D+F/D2t+G/hp4P8AD+tWvjPwr5Go6XoNrbXEO7X7BG2SJGGXKsynB5DEdDX0rUN1aQXsYjuIY541dJAsqBgHRgyNg91ZQwPYgHtU1ABXhXxY+HvhX4lftJfDfTPF3hnR/FWmw+EvElzHZ63YRXkKSi80NRIEkVgGCu43YzhiO5r3WoWtIHuo7poY2uY0aNJig3qjFSyg9QCUQkd9o9BQB5h/wyd8EP8Aojfw/wD/AAl7H/41R/wyd8EP+iN/D/8A8Jex/wDjVeq0UAeVf8MnfBD/AKI38P8A/wAJex/+NUf8MnfBD/ojfw//APCXsf8A41XqtFAHlX/DJ3wQ/wCiN/D/AP8ACXsf/jVH/DJ3wQ/6I38P/wDwl7H/AONV6rRQB5V/wyd8EP8Aojfw/wD/AAl7H/41R/wyd8EP+iN/D/8A8Jex/wDjVeq0UAeVfsnf8ms/Bv8A7EzRv/SGGvVahtLSDT7WG1tYY7a2hRY4oYUCpGgGAqgcAAAAAVNQB5V+1j/yaz8ZP+xM1n/0hmo/4ZO+CH/RG/h//wCEvY//ABqvT7u0g1C1mtbqGO5tpkaOWGZAySIRgqwPBBBIINTUAeVf8MnfBD/ojfw//wDCXsf/AI1R/wAMnfBD/ojfw/8A/CXsf/jVeq0UAeVf8MnfBD/ojfw//wDCXsf/AI1R/wAMnfBD/ojfw/8A/CXsf/jVeq0UAfP+k/CfwR8L/wBqbwV/whvg3w/4S+3eDPEX2v8AsLS4LL7RsvtD2eZ5SLu273xnONzY6mvoCoWtIHuo7poY2uY0aNJig3qjFSyg9QCUQkd9o9BU1ABXz/q3wn8EfFD9qbxr/wAJl4N8P+LfsPgzw79k/t3S4L37Pvvtc3+X5qNt3bEzjGdq56CvoCoVtIEupLpYY1uZEWN5gg3siliqk9SAXcgdtx9TQB5h/wAMnfBD/ojfw/8A/CXsf/jVH/DJ3wQ/6I38P/8Awl7H/wCNV6rRQB5V/wAMnfBD/ojfw/8A/CXsf/jVH/DJ3wQ/6I38P/8Awl7H/wCNV6rRQB4/+ynpNjoPwlu9M0yyt9O02y8W+Kba1s7SJYoYIk8QagqRoigBVVQAFAwAABXsFQ2tpBZRmO3hjgjZ3kKxIFBd2LO2B3ZmLE9ySe9TUAFfL/7Mv7Mvwe179m34Uanqfwn8D6jqV74S0m5ury78OWcs08r2cTPI7tGSzMxJLE5JJJr6gqG0tINPtYbW1hjtraFFjihhQKkaAYCqBwAAAABQB5h/wyd8EP8Aojfw/wD/AAl7H/41R/wyd8EP+iN/D/8A8Jex/wDjVeq0UAeVf8MnfBD/AKI38P8A/wAJex/+NUf8MnfBD/ojfw//APCXsf8A41XqtFAHlX/DJ3wQ/wCiN/D/AP8ACXsf/jVH/DJ3wQ/6I38P/wDwl7H/AONV6rRQB5V/wyd8EP8Aojfw/wD/AAl7H/41R/wyd8EP+iN/D/8A8Jex/wDjVeq0UAeFfCf4e+Ffhr+0l8SNM8I+GdH8K6bN4S8N3MlnolhFZwvKbzXFMhSNVBYqiDdjOFA7CvdahW0gS6kulhjW5kRY3mCDeyKWKqT1IBdyB23H1NTUAFfOvhD4I/Dr4lfFr446n4u8AeF/FWpQ+LbW2jvNb0a2vJkiHh/SGEYeRGIUM7nbnGWJ7mvoqoYbSC3knkihjikuH8yZkQAyOFVQzEdTtVVyeygdqAPMP+GTvgh/0Rv4f/8AhL2P/wAao/4ZO+CH/RG/h/8A+EvY/wDxqvVaKAPKv+GTvgh/0Rv4f/8AhL2P/wAao/4ZO+CH/RG/h/8A+EvY/wDxqvVaKAPKv+GTvgh/0Rv4f/8AhL2P/wAao/4ZO+CH/RG/h/8A+EvY/wDxqvVaKAPKv+GTvgh/0Rv4f/8AhL2P/wAao/4ZO+CH/RG/h/8A+EvY/wDxqvVaKAPKv+GTvgh/0Rv4f/8AhL2P/wAao/4ZO+CH/RG/h/8A+EvY/wDxqvVaKAPKv+GTvgh/0Rv4f/8AhL2P/wAao/4ZO+CH/RG/h/8A+EvY/wDxqvVaKAPn/SfhP4I+F/7U3gr/AIQ3wb4f8JfbvBniL7X/AGFpcFl9o2X2h7PM8pF3bd74znG5sdTX0BULWkD3Ud00MbXMaNGkxQb1RipZQeoBKISO+0egqagAr518IfBH4dfEr4tfHHU/F3gDwv4q1KHxba20d5rejW15MkQ8P6QwjDyIxChnc7c4yxPc19FVDDaQW8k8kUMcUlw/mTMiAGRwqqGYjqdqquT2UDtQB5h/wyd8EP8Aojfw/wD/AAl7H/41R/wyd8EP+iN/D/8A8Jex/wDjVeq0UAeVf8MnfBD/AKI38P8A/wAJex/+NUf8MnfBD/ojfw//APCXsf8A41XqtFAHwr+0J/wx7/woL4l/8Ix/wo//AIST/hGdT/sv+yf7H+2favssnk+R5fz+bv27dvzbsY5r1X9k79oT4Wf8KC+Dfhj/AIWX4P8A+Ek/4RnRtN/sf+3rX7Z9q+ywx/Z/J8zf5u/5NmN27jGa9A/4ZO+CH/RG/h//AOEvY/8AxqrWk/sy/B7QdVs9T0z4T+B9O1KymS5tby08OWcU0EqMGSRHWMFWVgCGByCARQB6XRRRQAUUUUAfKv7RH/J9n7I3/c3f+muKvqqvlX9oj/k+z9kb/ubv/TXFX1VQAUUUUAFFFFABRRXCeL/gL8M/iFrLav4p+HXhPxLqzIsbX+saHa3c5RfuqZJELYHYZ4oA+W/2O/gj8OviVqv7RGp+LvAHhfxVqUPxg8RW0d5rejW15MkQaBhGHkRiFDO525xlie5r3/8AZT0mx0H4S3emaZZW+nabZeLfFNta2dpEsUMESeINQVI0RQAqqoACgYAAAq3/AMMnfBD/AKI38P8A/wAJex/+NV6F4b8M6P4N0O10bw/pNjoej2ilbfT9Ntkt7eEEliEjQBVBJJ4HUmgDTr5f/Zl/Zl+D2vfs2/CjU9T+E/gfUdSvfCWk3N1eXfhyzlmnleziZ5HdoyWZmJJYnJJJNfUFQ2lpBp9rDa2sMdtbQoscUMKBUjQDAVQOAAAAAKAPMP8Ahk74If8ARG/h/wD+EvY//GqP+GTvgh/0Rv4f/wDhL2P/AMar1WigDyr/AIZO+CH/AERv4f8A/hL2P/xqvnX9sT4I/Dr4a6r+zvqfhHwB4X8K6lN8YPDttJeaJo1tZzPEWnYxl40UlSyIducZUHsK+36+Vf2+v+bcv+yzeHP/AG4oA+qqKKKACiiigAooooAKKKKACiiigAryr9rH/k1n4yf9iZrP/pDNXqteVftY/wDJrPxk/wCxM1n/ANIZqAD9k7/k1n4N/wDYmaN/6Qw16rXlX7J3/JrPwb/7EzRv/SGGvVaACiiigAooooAKKKKACiiigAooooAKKKKACiiigAooooAKKKKACiiigAooooAKKKKACiiigAooooAKKKKACiiigAooooAKKKKACiiigAooooAKKKKACiiigAooooAKKKKACiiigAooooAKKKKACiiigAooooAKKKKACiiigAooooAKKKKACiiigAooooAKKKKACiiigAooooAKKKKACiiigAooooAKKKKACivkrVv+CiFjoOlXmp6n+z98eNO02yhe5ury78FrFDBEilnkd2uAFVVBJYnAAJNW/Cf/AAUE0vxh/Y1xafA344JouqeTJDrf/CFPPZiCXaVuN0MsjPFtYPmNXJX7oY4BAPqqivKv+GlvCP8A0CPiB/4bjxD/APINH/DS3hH/AKBHxA/8Nx4h/wDkGgD1WivH9S/as8B6LbpcahaeOLC3eaG2WW5+HviCNWllkWKKMFrEAs8joir1ZmUDJIFW/wDhpbwj/wBAj4gf+G48Q/8AyDQB5V+0R/yfZ+yN/wBzd/6a4q+qq+Kvid8S9I+In7dn7Kn9lWfiC0+x/wDCV+Z/bvhzUdI3b9LTHl/bIIvM+6c7N23K5xuGftWgAooooAKK5Tw78UvDHizx34u8G6Vqf2rxJ4T+x/21ZfZ5U+y/aojLb/OyhH3IpPyM2MYODxXV0AFcJ4v+PXwz+HustpHin4i+E/DWrKiyNYaxrlraThG+6xjkcNg9jjmtDw78UvDHizx34u8G6Vqf2rxJ4T+x/wBtWX2eVPsv2qIy2/zsoR9yKT8jNjGDg8V1dAHlX/DWPwQ/6LJ8P/8AwqLH/wCO16L4f8RaV4s0a01fRNTs9Z0m8TzLa/0+dJ4Jk/vJIhKsPcGvmX9gX/m43/ss3iP/ANt6+qqACiiigAooooAK+Vf2+v8Am3L/ALLN4c/9uK+qq+Vf2+v+bcv+yzeHP/bigD6qooooAKKKKACiiigAooooAKKKKACvKv2sf+TWfjJ/2Jms/wDpDNXqteVftY/8ms/GT/sTNZ/9IZqAD9k7/k1n4N/9iZo3/pDDXqteVfsnf8ms/Bv/ALEzRv8A0hhr1WgAooooAKKKKACiiigAooooAKKKKACiiigAooooAKKKKAMnxZ4g/wCET8K6zrf9m6hrH9m2U17/AGdpMHn3l15cbP5UEeRvlbbtVcjLEDPNfKvin/gpNofgfQbrW/EnwL+OHh/RbXb5+o6p4QS2t4dzBF3yPcBVyzKoyeSwHU19gV8q/wDBUf8A5MT+Jv8A3DP/AE6WlAGr4T/bb/4SzxVo2if8KD+OGj/2lew2X9o6t4N8iztfMkVPNnk847Il3bmbBwoJxxX0rRRQAUVieL/F+neB9Jg1HVGkS2m1Cx0xDEm4+dd3UVrCMehlnjyewye1bdABRRWJd+L9OsvGmleFpWkGralp95qduoTKGG2kto5SW7HdeQ4HfJ9KANuiiigAoorEtPF+nXvjTVfC0TSHVtN0+z1O4UphBDcyXMcRDdzus5sjtgetAG3RRRQAUVieEPF+neONJn1HS2ke2h1C+0xzKm0+daXUtrMMeglgkwe4we9bdABRRWJ4H8X6d8QvBegeKdIaR9J1zT7fU7Npk2OYZo1kjLL2O1hkdqANuiisTxx4v074e+C9f8U6u0iaToen3Gp3jQpvcQwxtJIVXudqnA70AbdFFFABRRRQAUViXfi/TrLxppXhaVpBq2pafeanbqEyhhtpLaOUlux3XkOB3yfStugAoorEtPF+nXvjTVfC0TSHVtN0+z1O4UphBDcyXMcRDdzus5sjtgetAG3RRRQAUUUUAFFFFABRRRQAUVieOPF+nfD3wXr/AIp1dpE0nQ9PuNTvGhTe4hhjaSQqvc7VOB3rboAKKxPF/i/TvA+kwajqjSJbTahY6YhiTcfOu7qK1hGPQyzx5PYZPatugAoorE8QeL9O8Nat4a069aRbnxDqD6ZYhE3AzLa3F0Qx/hHlWsvPqAO9AG3RRRQAUViWni/Tr3xpqvhaJpDq2m6fZ6ncKUwghuZLmOIhu53Wc2R2wPWtugAooooAKKKxPCHi/TvHGkz6jpbSPbQ6hfaY5lTafOtLqW1mGPQSwSYPcYPegDbooooAKKxPA/i/TviF4L0DxTpDSPpOuafb6nZtMmxzDNGskZZex2sMjtW3QAUUUUAFFFYniDxfp3hrVvDWnXrSLc+IdQfTLEIm4GZbW4uiGP8ACPKtZefUAd6ANuiiigAorEu/F+nWXjTSvC0rSDVtS0+81O3UJlDDbSW0cpLdjuvIcDvk+lbdABRRRQAUVieH/F+neJdW8S6dZNI1z4e1BNMvg6bQJmtbe6AU/wAQ8q6i59SR2rboAKKKxPCHi/TvHGkz6jpbSPbQ6hfaY5lTafOtLqW1mGPQSwSYPcYPegDhf2sf+TWfjJ/2Jms/+kM1eafsy/tB+F9F/Zt+FGn3GleOJLi08JaTBI9p4B125hZls4lJSWOyZJFyOHRirDBBIINel/tY/wDJrPxk/wCxM1n/ANIZq80/Zl+LHijTf2bfhRaW/wAGPHGqW8HhLSYo760vNCWG5VbOICRBJqaOFYDcA6K2CMqDkUAel/8ADS3hH/oEfED/AMNx4h/+QaP+GlvCP/QI+IH/AIbjxD/8g0f8Lk8Xf9EJ+IH/AIHeHv8A5a0f8Lk8Xf8ARCfiB/4HeHv/AJa0AeaftB/tB+F9W8B6VBBpXjhHXxb4YnJufAOuwLtj12wkYBpLJQWKoQqA7nYqihmZVPpf/DS3hH/oEfED/wANx4h/+Qa8/wDjb8S/EfiDwv4esL/4T+MPDNpN4z8K79U1S70Z7eDGv2DDeLfUJZTuICjbG3LDOBkj2r4peIvE/hPwJqeq+DfCP/Cd+JLfyvsnh/8AtKLTvtW6VFf/AEiUFE2ozvyOdm0ckUAfFf7UH7RWkWf7WH7M/ibSvCHxA8R/2L/wk3maPZ+DdRtdRuvOsIox9mhvIoPP28u+wnYqknGRn1X/AIb6/wCrcv2gP/CG/wDt9eVfETVP2nfH3x2+EfxH/wCGYfsP/CAf2v8A8Sz/AIT/AEuT7f8AbrVYP9bgeVs27vutuzj5etfSnwV+Knxi8ceKrqw+IXwM/wCFZaLHZPPDq3/CXWeredOJI1WDyoVDLlWkbeeB5eOrCgDgP+G+v+rcv2gP/CG/+30f8N9f9W5ftAf+EN/9vr6qooA+Kv2JvH3/AAtD9rD9qbxN/wAI54g8Jfbv+EV/4k/imx+xajb7LCeP97Dubbu2b15OVZT3r7VrxT4V/BXXPA/7Sfxz+IV/dafNovjr+wv7Ngt5JGuIfsVm8EvnKUCrlmBXazZHXaeK9roA+ANL+Pv/AAo39uz9p7/i3HxA+IH9qf8ACL/8iLof9pfZPL0s/wCv/eLs3+Z8vXOx+mK9V/4b6/6ty/aA/wDCG/8At9d/8K/grrngf9pP45/EK/utPm0Xx1/YX9mwW8kjXEP2KzeCXzlKBVyzArtZsjrtPFe10AfBX7B3x90LS9K+N93qfh/xxYXGr/FPXNUWxj8GarfTWiyrbkQ3BtLeZIp0IKvEX3KRyMEE/UH/AA0t4R/6BHxA/wDDceIf/kGvKv2Bf+bjf+yzeI//AG3r6qoA8q/4aW8I/wDQI+IH/huPEP8A8g0f8NLeEf8AoEfED/w3HiH/AOQa9VooA8q/4aW8I/8AQI+IH/huPEP/AMg0f8NLeEf+gR8QP/DceIf/AJBr1WigDyr/AIaW8I/9Aj4gf+G48Q//ACDXzr+2J8XtC8far+zvp+mWHii1uI/jB4dnZ9b8J6rpUJUNOpAlu7aJGbLD5AxYgEgYUkfb9fKv7fX/ADbl/wBlm8Of+3FAH1VRRRQAUUUUAFFFFABRRRQAUUUUAFeVftY/8ms/GT/sTNZ/9IZq9Vryr9rH/k1n4yf9iZrP/pDNQAfsnf8AJrPwb/7EzRv/AEhhr1WvKv2Tv+TWfg3/ANiZo3/pDDXqtABRRRQAUUUUAFFFFABRRRQAUUUUAFFFFABRRRQAUUUUAFfKv/BUf/kxP4m/9wz/ANOlpX1VXyr/AMFR/wDkxP4m/wDcM/8ATpaUAH/DRH7Tv/Ro3/mStL/+N0f8NEftO/8ARo3/AJkrS/8A43X1VRQB8VfET4zfHbxZa+FNK8Zfs6f8IJ4buPGfhj7X4g/4Tiw1H7Lt1yxZP9HiQO+51RODxv3HgGvtWuP+Kngef4heGLLS7e5jtJLfXdG1YySqSCllqdteOnHdltyo9CwrsKACvmr9o7xn478D/H34ZX/w9+HX/Czdak8M+I4JtJ/tyDSfJgN1orNP5swKthljXYOT5meimvpWuP1TwPPqHxe8M+MFuY0ttJ0LVdJe2KnfI93cadKrg9AFFi4P++PQ0AeC/wDDRH7Tv/Ro3/mStL/+N1k3P7WH7RNn4q07w3L+yhs1rULK51C2tv8AhY2nHzILeSCOZ9wi2ja11AMEgnfwCA2PsCvKvEf/ACdN8PP+xM8Tf+l2g0AeVf8ADRH7Tv8A0aN/5krS/wD43Wr+zj4z8d+OPj78Tb/4hfDr/hWWtR+GfDkEOk/25Bq3nQC61pln82EBVyzSLsPI8vPRhX0rXH6X4Hn0/wCL3ibxg1zG9tq2haVpKWwU743tLjUZWcnoQwvkA/3D6igDsKKKKAPir4d/Gb47eE7XxXpXg39nT/hO/Ddv4z8T/ZPEH/CcWGnfat2uXzP/AKPKhdNrs6cnnZuHBFdX/wANEftO/wDRo3/mStL/APjde9fCvwPP8PfDF7pdxcx3clxrus6sJIlIAS91O5vETnuq3AU+pU12FAHx/wCE/wBrD9onxx4V0bxJon7KH23RdYsodQsbn/hY2nR+dBLGskb7XiDLlWBwwBGeQDXtf7J3/JrPwb/7EzRv/SGGj9k7/k1n4N/9iZo3/pDDW18BfCGo/D34G/Drwtq6xpq2h+HNO0y8WF96CaG1jjkCt3G5Tg96AO7ryr9rH/k1n4yf9iZrP/pDNXqtcJ8evCGo/EL4G/EXwtpCxvq2ueHNR0yzWZ9iGaa1kjjDN2G5hk9qAPEP+GiP2nf+jRv/ADJWl/8Axuj/AIaI/ad/6NG/8yVpf/xuvqqigD5V/wCGiP2nf+jRv/MlaX/8brJ1n9rD9onw/qWhWF/+yh9nu9cvW0/T4/8AhY2nN586281yUyIiF/c20zZbA+TGckA/YFeVfGT/AJKL8Cf+xzuf/Ue1mgDyr4X/ABE+J/j79qbwv/wsf4R/8Kr+yeDNf+wf8VLa6x9v3X2i+b/qFHlbNsf3vveZx9019VVwmseENRvfjl4R8UxLGdJ03w5rWmXDF8OJrm60uSIBe422c2T2wPWu7oAK+Vfih8RPif4B/am8Uf8ACuPhH/wtT7X4M0D7f/xUtro/2Dbfa15X+vU+bv3Sfd+75fP3hX1VXCaP4Q1Gy+OXi7xTKsY0nUvDmi6ZbsHy5mtrrVJJQV7DbeQ4PfJ9KAOF/Zu/aR1n40eJviD4R8XfD64+HHjbwTNYrqOktq0GqQmK7gM1u63EQUFiqPuXGFBT5iSyp7rXyr+zv/yfZ+1z/wByj/6a5a+qqACiiigAooooA5/4heNrH4a+AfEvi7U4rifTdA0y51W6itFVpnigiaV1QMygsVQ4BIGcZI618v8AhP8Aaw/aJ8ceFdG8SaJ+yh9t0XWLKHULG5/4WNp0fnQSxrJG+14gy5VgcMARnkA17X+1j/yaz8ZP+xM1n/0hmo/ZO/5NZ+Df/YmaN/6Qw0AfNX7Qnx2/aJ1j4BfEuw1v9l3/AIR/RbrwzqcF9q3/AAsHTrn7FA1rIsk/lIm6TYpLbF5bbgcmvuquE+PXhDUfiF8DfiL4W0hY31bXPDmo6ZZrM+xDNNayRxhm7Dcwye1d3QB4p+2FqOqaP8EWv9E0j/hINatfE3hmex0n7Stt9tnXXrBo4PNcbY97ALvbhd2TwK8q1n9rD9onw/qWhWF/+yh9nu9cvW0/T4/+Fjac3nzrbzXJTIiIX9zbTNlsD5MZyQD9C/GfwhqPjjwfp+naWsb3MPiPQdTcSvtHk2mr2d1Mc+oigkIHc4HesX4yf8lF+BP/AGOdz/6j2s0AeVf8NEftO/8ARo3/AJkrS/8A43WTD8VPjF44+N3wTsPiF8DP+FZaLH4mu54dW/4S6z1bzpxoOqqsHlQqGXKtI288Dy8dWFfYFcJ8RfCGo+JfGHwu1GyWNrbw94jm1O+LvtIhbSNRtQVH8R826iGPQk9qAO7ooooA+Vfih8RPif4B/am8Uf8ACuPhH/wtT7X4M0D7f/xUtro/2Dbfa15X+vU+bv3Sfd+75fP3hWTbftYftE3nirUfDcX7KG/WtPsrbULm2/4WNpw8uC4knjhfcYtp3NazjAJI2cgArn6F0fwhqNl8cvF3imVYxpOpeHNF0y3YPlzNbXWqSSgr2G28hwe+T6Vi+HP+TpviH/2Jnhn/ANLteoA8q/4aI/ad/wCjRv8AzJWl/wDxuj/hoj9p3/o0b/zJWl//ABuvqqigD5V/4aI/ad/6NG/8yVpf/wAbrv8A9j3UdU1j4Irf63pH/CP61deJvE099pP2lbn7FO2vX7SQeag2ybGJXevDbcjg17XXCfBjwhqPgfwfqGnaosaXM3iPXtTQRPuHk3er3l1Cc+pinjJHY5HagDu6KKKAPhX9nv47ftE6P8AvhpYaJ+y7/wAJBotr4Z0yCx1b/hYOnW322BbWNY5/KdN0e9QG2Nyu7B5FdV4s/aw/aJ8D+FdZ8Sa3+yh9i0XR7KbUL65/4WNp0nkwRRtJI+1IizYVScKCTjgE19C/AXwhqPw9+Bvw68LausaatofhzTtMvFhfegmhtY45ArdxuU4PesX9rH/k1n4yf9iZrP8A6QzUAeVf8NEftO/9Gjf+ZK0v/wCN0f8ADRH7Tv8A0aN/5krS/wD43X1VRQB8q/8ADRH7Tv8A0aN/5krS/wD43WTD8VPjF44+N3wTsPiF8DP+FZaLH4mu54dW/wCEus9W86caDqqrB5UKhlyrSNvPA8vHVhX2BXCfEXwhqPiXxh8LtRslja28PeI5tTvi77SIW0jUbUFR/EfNuohj0JPagDu6KKKAPmr9o7xn478D/H34ZX/w9+HX/Czdak8M+I4JtJ/tyDSfJgN1orNP5swKthljXYOT5meimuUtv2sP2ibzxVqPhuL9lDfrWn2VtqFzbf8ACxtOHlwXEk8cL7jFtO5rWcYBJGzkAFc/QuseENRvfjl4R8UxLGdJ03w5rWmXDF8OJrm60uSIBe422c2T2wPWsXw5/wAnTfEP/sTPDP8A6Xa9QB5V/wANEftO/wDRo3/mStL/APjdH/DRH7Tv/Ro3/mStL/8AjdfVVFAHz/8Ask+IvE/iy6+Meq+MvCP/AAgniS48Zx/a/D/9pRaj9l26HpKp/pEQCPuRUfgcb9p5Br6ArhPh14Q1Hw14w+KOo3qxrbeIfEcOp2JR9xMK6Rp1qSw/hPm2sox6AHvXd0AFfFXw7+M3x28J2vivSvBv7On/AAnfhu38Z+J/sniD/hOLDTvtW7XL5n/0eVC6bXZ05POzcOCK+1a4T4MeENR8D+D9Q07VFjS5m8R69qaCJ9w8m71e8uoTn1MU8ZI7HI7UAfKH7Qnx2/aJ1j4BfEuw1v8AZd/4R/RbrwzqcF9q3/CwdOufsUDWsiyT+UibpNiktsXltuBya9K/Zl+LHijTf2bfhRaW/wAGPHGqW8HhLSYo760vNCWG5VbOICRBJqaOFYDcA6K2CMqDkV6X+1j/AMms/GT/ALEzWf8A0hmrzT9mXX/jDD+zb8KI9M8C+B7zTV8JaStrcXfjS8gmliFnFsd410lwjFcEqHcAkgM2MkA9L/4XJ4u/6IT8QP8AwO8Pf/LWj/hcni7/AKIT8QP/AAO8Pf8Ay1o/4ST43/8ARPPh/wD+F5ff/Kaj/hJPjf8A9E8+H/8A4Xl9/wDKagDz/wCNvxL8R+IPC/h6wv8A4T+MPDNpN4z8K79U1S70Z7eDGv2DDeLfUJZTuICjbG3LDOBkj6Vr5q+NutfFO88L+HovEng3wfpWit4z8K+feaX4tur64j/4n9gV2QvpkKvltoOZFwCTyRtP0rQAUUUUAFFFFABRRRQAV8//ABS+M3x28J+O9T0rwb+zp/wnfhu38r7J4g/4Tiw077VuiRn/ANHlQum12dOTzs3DgivoCigD4A+AWqftO/A3/hY//GMP9t/8Jh4z1Lxd/wAj/pdv9k+1+X/o/Rt+zy/v/LnP3RivunwnqOqax4V0a/1vSP8AhH9aurKGe+0n7Stz9inaNWkg81Btk2MSu9eG25HBrWooAKKKKACiiigAr5V/b6/5ty/7LN4c/wDbivqqvlX9vr/m3L/ss3hz/wBuKAPqqiiigAooooAKKKKACiiigAooooAK8q/ax/5NZ+Mn/Ymaz/6QzV6rXlX7WP8Ayaz8ZP8AsTNZ/wDSGagA/ZO/5NZ+Df8A2Jmjf+kMNeq15V+yd/yaz8G/+xM0b/0hhr1WgAooooAKKKKACiiigAooooAKKKKACiiigAooooAKKKKACvlX/gqP/wAmJ/E3/uGf+nS0r6qr5V/4Kj/8mJ/E3/uGf+nS0oA+qqKKKACiiigAooooAK8q8R/8nTfDz/sTPE3/AKXaDXqteVeI/wDk6b4ef9iZ4m/9LtBoA9VooooAKKKKACiiigDyr9k7/k1n4N/9iZo3/pDDXqteVfsnf8ms/Bv/ALEzRv8A0hhr1WgAooooAKKKKACvKvjJ/wAlF+BP/Y53P/qPazXqteVfGT/kovwJ/wCxzuf/AFHtZoA9VooooAKKKKAPlX9nf/k+z9rn/uUf/TXLX1VXyr+zv/yfZ+1z/wByj/6a5a+qqACiiigAooooA8q/ax/5NZ+Mn/Ymaz/6QzUfsnf8ms/Bv/sTNG/9IYaP2sf+TWfjJ/2Jms/+kM1H7J3/ACaz8G/+xM0b/wBIYaAPVaKKKACvKvjJ/wAlF+BP/Y53P/qPazXqteVfGT/kovwJ/wCxzuf/AFHtZoA9VooooAKKKKAOP8cap4/0+6tl8H+GfDeu2zITPJrniK40x43zwEWKxuQ4x3LL9D1ry/TdJ+N+n/FTxD4y/wCEK+H8n9r6NpmkfYv+E3vh5X2Se/l8zf8A2P8ANv8At+Nu0bfKzk7sL9AUUAYnhC78R3ujLL4p0rS9G1bewa10fU5NQgCfwkSyW8DEnuPL49TW3RRQAUUUUAFFFFABXlX7WP8Ayaz8ZP8AsTNZ/wDSGavVa8q/ax/5NZ+Mn/Ymaz/6QzUAeq0UUUAFFFFABRRRQAV5V4c/5Om+If8A2Jnhn/0u16vVa8q8Of8AJ03xD/7Ezwz/AOl2vUAeq0UUUAFFFFABRRRQB5V+1j/yaz8ZP+xM1n/0hmrzT9mXX/jDD+zb8KI9M8C+B7zTV8JaStrcXfjS8gmliFnFsd410lwjFcEqHcAkgM2Mn0v9rH/k1n4yf9iZrP8A6QzV81fs9/8ADYX/AAoL4af8Ix/wo/8A4Rv/AIRnTP7L/tb+2Ptn2X7LH5Pn+X8nm7Nu7b8u7OOKAPpX/hJPjf8A9E8+H/8A4Xl9/wDKaj/hJPjf/wBE8+H/AP4Xl9/8pq8q/wCM3v8Aq3//AMrlH/Gb3/Vv/wD5XKAO38YaH8XviZZ6Ro2r+FPBOg6XDr2j6tc31l4tvL6dI7LUba8ZUhbS4VdnFvsGZFA355xg+kfFL/hOP+EE1P8A4Vx/wj//AAmf7r7B/wAJT5/9nf61PN83yP3n+q8zbt/i254zXgH/ABm9/wBW/wD/AJXKP+M3v+rf/wDyuUAef+M/jX+2F4H+LHw6+Ht/a/A+XWvHX9o/2bPbx6w1vD9igWeXzmLhlyrALtVsnrtHNe//AAV/4aL/AOEquv8Ahbv/AAq//hG/sT/Z/wDhCv7R+2favMj27/tPyeVs83OPm3bO2a8A8Z/BX9sLxx8WPh18Qr+6+B8OteBf7R/s2C3k1hbeb7bAsEvnKULNhVBXay4PXcOK9A/4ze/6t/8A/K5QB9VUV8v/AAQ+N/xhH7SWp/B74w6Z4HbUm8JL4ssNS8DveCFIhefZWhlW5yWZmO4FdoUJ/Hv+T6goAKKKKACvn/4pf8NT/wDCd6n/AMK4/wCFP/8ACGfuvsH/AAlP9q/2j/qk83zfI/d/63zNu3+HbnnNfQFFAHwr8IfjX+2F8aP+E1/sS1+B9r/wifia98KX39oR6wnmXVrs8x4tjtmI+YNpbaxwcqK+1PCf9uf8Iro3/CT/ANn/APCSfYof7U/snzPsf2ry187yPM+fyt+7bu+bbjPNfG37HerfEWx1X9oiPwj4V8L65pp+MHiJpLjW/Etzpsyy7oMoI49PuAV2hDu3gkkjaMAn6K/4ST43/wDRPPh//wCF5ff/ACmoA9Voryr/AIST43/9E8+H/wD4Xl9/8pqP+Ek+N/8A0Tz4f/8AheX3/wApqAPVaK8q/wCEk+N//RPPh/8A+F5ff/Kaj/hJPjf/ANE8+H//AIXl9/8AKagD1WvlX9vr/m3L/ss3hz/24r1X/hJPjf8A9E8+H/8A4Xl9/wDKavnX9sTVviLfar+zvH4u8K+F9D00fGDw60dxoniW51KZpd0+EMcmn24C7S53byQQBtOSQAfb9FFFABRRRQAUUUUAFFFFABRRRQAV5V+1j/yaz8ZP+xM1n/0hmr1WvKv2sf8Ak1n4yf8AYmaz/wCkM1AB+yd/yaz8G/8AsTNG/wDSGGvVa8q/ZO/5NZ+Df/YmaN/6Qw16rQAUUUUAFFFFABRRRQAUUUUAFFFFABRRRQAUUUUAFFFFABXyr/wVH/5MT+Jv/cM/9OlpX1VXyr/wVH/5MT+Jv/cM/wDTpaUAfVVFFFABRRRQAUUUUAFeVeI/+Tpvh5/2Jnib/wBLtBr1WvKvEf8AydN8PP8AsTPE3/pdoNAHqtFFFABRRRQAUUUUAeVfsnf8ms/Bv/sTNG/9IYa9Vryr9k7/AJNZ+Df/AGJmjf8ApDDXqtABRRRQAUUUUAFeVfGT/kovwJ/7HO5/9R7Wa9Vryr4yf8lF+BP/AGOdz/6j2s0Aeq0UUUAFFFFAHyr+zv8A8n2ftc/9yj/6a5a+qq+Vf2d/+T7P2uf+5R/9NctfVVABRRRQAUUUUAeVftY/8ms/GT/sTNZ/9IZqP2Tv+TWfg3/2Jmjf+kMNH7WP/JrPxk/7EzWf/SGaj9k7/k1n4N/9iZo3/pDDQB6rRRRQBn+IIdVuNGu4tEvbPTtWZMW11qFo93BG/q8SSxM49hIv1rxrxN8J/jD4q1rwnqd38SPA8dx4a1N9Vs1h8C3gWSVrK5sysgOsElfLu5DgEHcqnOAQfdaKAOE8IaP8TLLWVl8U+LvCes6TsYNa6P4WutPnL/wkSyajOoA7jy+fUV3dFFABRRRQBx/jjS/H+oXVs3g/xN4b0K2VCJ49c8O3GpvI+eCjRX1sEGOxVvqOleX6bq3xv1D4qeIfBv8Awmvw/j/sjRtM1f7b/wAIRfHzftc9/F5ez+2Pl2fYM7tx3ebjA25b6Aryrw5/ydN8Q/8AsTPDP/pdr1AHdeELTxHZaMsXinVdL1nVt7FrrR9Mk0+Ap/CBFJcTsCO58zn0FbdFFABRRRQAUUUUAFeVftY/8ms/GT/sTNZ/9IZq9Vryr9rH/k1n4yf9iZrP/pDNQB6rRRRQAUUUUAFFFFABXlXhz/k6b4h/9iZ4Z/8AS7Xq9Vryrw5/ydN8Q/8AsTPDP/pdr1AHqtFFFABRRRQAUUUUAeVftY/8ms/GT/sTNZ/9IZqP2Tv+TWfg3/2Jmjf+kMNH7WP/ACaz8ZP+xM1n/wBIZqP2Tv8Ak1n4N/8AYmaN/wCkMNAHqtFFFABRRRQAVieL7TxHe6M0XhbVdL0bVt6lbrWNMk1CAJ/EDFHcQMSex8zj0NbdFAHzV/wzj8U/+F+/8Ld/4Wb4P/4ST/hGf+EU+y/8IPdfY/sv2r7Vv2/2tv8AN38Z37dv8Oea9l8D6X4/0+6uW8YeJvDeu2zIBBHofh240x43zyXaW+uQ4x2Cr9T0rsKKACiiigAooooA+Vf2Bf8Am43/ALLN4j/9t6+qq+Vf2Bf+bjf+yzeI/wD23r3r4V+OJ/iF4YvdUuLaO0kt9d1nSRHExIKWWp3Nmj892W3DH0LGgDsKKK4/4N+OJ/ib8IfA/jC6to7K58Q6FY6tLbQsWSJ57dJSik8kAuQM+lAHYUUUUAFfKv7fX/NuX/ZZvDn/ALcV9VV8q/t9f825f9lm8Of+3FAH1VRRRQAUUUUAFFFFABRRRQAUUUUAFeVftY/8ms/GT/sTNZ/9IZq9Vryr9rH/AJNZ+Mn/AGJms/8ApDNQAfsnf8ms/Bv/ALEzRv8A0hhr1WvKv2Tv+TWfg3/2Jmjf+kMNeq0AFFFFABRRRQAUUUUAFFFFABRRRQAUUUUAFFFFABRRRQAV8q/8FR/+TE/ib/3DP/TpaV9VV8q/8FR/+TE/ib/3DP8A06WlAH1VRRRQAUUUUAFFFFABXlXiP/k6b4ef9iZ4m/8AS7Qa9VryrxH/AMnTfDz/ALEzxN/6XaDQB6rRRRQAUUUUAFFFFAHlX7J3/JrPwb/7EzRv/SGGvVa8q/ZO/wCTWfg3/wBiZo3/AKQw16rQAUUUUAFFFFABXlXxk/5KL8Cf+xzuf/Ue1mvVa8q+Mn/JRfgT/wBjnc/+o9rNAHqtFFFABRRRQB8q/s7/APJ9n7XP/co/+muWvqqvlX9nf/k+z9rn/uUf/TXLX1VQAUUUUAFFFFAHlX7WP/JrPxk/7EzWf/SGaj9k7/k1n4N/9iZo3/pDDR+1j/yaz8ZP+xM1n/0hmo/ZO/5NZ+Df/YmaN/6Qw0Aeq0UUUAZ/iDTLnWdGu7K01a80K5mTbHqWnpC09uf7yCaOSMn/AH0Ye1eC+PvCHjzwr4r+GumWnxx8cSW/iXxBNpV402n+Hy0cS6VqF4GjI0sAN5lpGMkEbWYYyQR9FV5V8ZP+Si/An/sc7n/1HtZoA2vCHw68QeGtZW91H4o+LPFlsEZTpusWukRwEnoxNtYQyZHbD49Qa7uiigAooooAK8q8Of8AJ03xD/7Ezwz/AOl2vV6rXlXhz/k6b4h/9iZ4Z/8AS7XqAPVaKKKACiiigAooooAK8q/ax/5NZ+Mn/Ymaz/6QzV6rXlX7WP8Ayaz8ZP8AsTNZ/wDSGagD1WiiigAooooAKKKKACvKvDn/ACdN8Q/+xM8M/wDpdr1eq15V4c/5Om+If/YmeGf/AEu16gD1WiiigAooooAKKKKAPKv2sf8Ak1n4yf8AYmaz/wCkM1H7J3/JrPwb/wCxM0b/ANIYaP2sf+TWfjJ/2Jms/wDpDNXmn7Mvwn8Ual+zb8KLu3+M/jjS7e48JaTLHY2lnoTQ2ytZxERoZNMdyqg7QXdmwBlicmgD6goryr/hTfi7/ou3xA/8AfD3/wAqqP8AhTfi7/ou3xA/8AfD3/yqoA9Voryr/hTfi7/ou3xA/wDAHw9/8qqP+FN+Lv8Aou3xA/8AAHw9/wDKqgD1WsTxf4fvvEujNZad4l1Twncl1calo8drJOAOqgXME0eD3+TPoRXC/wDCm/F3/RdviB/4A+Hv/lVR/wAKb8Xf9F2+IH/gD4e/+VVAHinnfEr/AIbQ/wCFRf8AC7PGH/CN/wDCv/8AhK/tX9m6D9s+1f2j9l2bv7N2eVs5xs3bv4scV9IeB/A+teE7q5l1T4heJPGccyBEg1y30yNISDnchtLOBiT0+YsPavmXwT4Z1Hwr/wAFOJbTU/FmseMbh/g+ZVvtbiso5o1OtKBGBaW8CbQVLZKFsscsRgD7KoAKKKKACiiigD4g/Y78A674q1X9oi70z4leKPB1unxg8RRNY6JbaVJDIwaAmQm7sp33EMFwHC4UYUHJPv8A+ynZzab8Jbu0uL+41S4t/FvimKS+u1jWa5ZfEGoAyOI0RAzEbiERVyThQMCvNf2Bf+bjf+yzeI//AG3r6P8ACHhDTvA+kz6dpayJbTahfam4lfcfOu7qW6mOfQyzyYHYYHagDbr5f/Zl+E/ijUv2bfhRd2/xn8caXb3HhLSZY7G0s9CaG2VrOIiNDJpjuVUHaC7s2AMsTk19QVieB/CGnfD3wXoHhbSFkTSdD0+30yzWZ97iGGNY4wzdztUZPegDhf8AhTfi7/ou3xA/8AfD3/yqo/4U34u/6Lt8QP8AwB8Pf/KqvVaKAPKv+FN+Lv8Aou3xA/8AAHw9/wDKqvnX9sTwDrvhXVf2d7vU/iV4o8Y27/GDw7EtjrdtpUcMbFpyJAbSygfcApXBcrhjlScEfb9fKv7fX/NuX/ZZvDn/ALcUAfVVFFFABRRRQAUUUUAFFFFABRRRQAV5V+1j/wAms/GT/sTNZ/8ASGavVa8q/ax/5NZ+Mn/Ymaz/AOkM1AHzV+z3/wAE4f2dvHHwC+GniTW/h59t1rWPDOmahfXP9t6jH508trHJI+1LgKuWYnCgAZ4AFegf8OuP2Yv+iZ/+V/VP/kmvVf2Tv+TWfg3/ANiZo3/pDDXqtAHyr/w64/Zi/wCiZ/8Alf1T/wCSaP8Ah1x+zF/0TP8A8r+qf/JNfVVFAHyr/wAOuP2Yv+iZ/wDlf1T/AOSaP+HXH7MX/RM//K/qn/yTX1VRQB8q/wDDrj9mL/omf/lf1T/5Jo/4dcfsxf8ARM//ACv6p/8AJNfVVFAHyr/w64/Zi/6Jn/5X9U/+SaP+HXH7MX/RM/8Ayv6p/wDJNfVVFAHyr/w64/Zi/wCiZ/8Alf1T/wCSaP8Ah1x+zF/0TP8A8r+qf/JNfVVFAHyr/wAOuP2Yv+iZ/wDlf1T/AOSaP+HXH7MX/RM//K/qn/yTX1VRQB8q/wDDrj9mL/omf/lf1T/5Jo/4dcfsxf8ARM//ACv6p/8AJNfVVFAHyr/w64/Zi/6Jn/5X9U/+SaP+HXH7MX/RM/8Ayv6p/wDJNfVVFAHyr/w64/Zi/wCiZ/8Alf1T/wCSa+f/ANvX9gr4E/Bb9k/xz4y8G+Bv7H8Sab9h+yXv9r38/l+Zf28T/JLOyHKSOOVOM5HIBr9Kq+Vf+Co//JifxN/7hn/p0tKAD/h1x+zF/wBEz/8AK/qn/wAk0f8ADrj9mL/omf8A5X9U/wDkmvqqigD5V/4dcfsxf9Ez/wDK/qn/AMk0f8OuP2Yv+iZ/+V/VP/kmvqqigD5V/wCHXH7MX/RM/wDyv6p/8k0f8OuP2Yv+iZ/+V/VP/kmvqqigD5V/4dcfsxf9Ez/8r+qf/JNH/Drj9mL/AKJn/wCV/VP/AJJr6qooA+Vf+HXH7MX/AETP/wAr+qf/ACTR/wAOuP2Yv+iZ/wDlf1T/AOSa+qqKAPlX/h1x+zF/0TP/AMr+qf8AyTR/w64/Zi/6Jn/5X9U/+Sa+qqKAPlX/AIdcfsxf9Ez/APK/qn/yTR/w64/Zi/6Jn/5X9U/+Sa+qqKAPlX/h1x+zF/0TP/yv6p/8k0f8OuP2Yv8Aomf/AJX9U/8AkmvqqigD5V/4dcfsxf8ARM//ACv6p/8AJNH/AA64/Zi/6Jn/AOV/VP8A5Jr6qooA+Vf+HXH7MX/RM/8Ayv6p/wDJNH/Drj9mL/omf/lf1T/5Jr6qooA+Vf8Ah1x+zF/0TP8A8r+qf/JNH/Drj9mL/omf/lf1T/5Jr6qooA+Vf+HXH7MX/RM//K/qn/yTR/w64/Zi/wCiZ/8Alf1T/wCSa+qqKAPlX/h1x+zF/wBEz/8AK/qn/wAk0f8ADrj9mL/omf8A5X9U/wDkmvqqigD5V/4dcfsxf9Ez/wDK/qn/AMk0f8OuP2Yv+iZ/+V/VP/kmvqqigD5V/wCHXH7MX/RM/wDyv6p/8k0f8OuP2Yv+iZ/+V/VP/kmvqqigD5V/4dcfsxf9Ez/8r+qf/JNH/Drj9mL/AKJn/wCV/VP/AJJr6qooA+Vf+HXH7MX/AETP/wAr+qf/ACTR/wAOuP2Yv+iZ/wDlf1T/AOSa+qqKAPlX/h1x+zF/0TP/AMr+qf8AyTR/w64/Zi/6Jn/5X9U/+Sa+qqKAPlX/AIdcfsxf9Ez/APK/qn/yTUM3/BLL9mWWSBl+HUkKxvvZE17UcSjaw2tm4JxkhvlIOVHOMg/WFFAHyr/w64/Zi/6Jn/5X9U/+SaP+HXH7MX/RM/8Ayv6p/wDJNfVVFAHyr/w64/Zi/wCiZ/8Alf1T/wCSaP8Ah1x+zF/0TP8A8r+qf/JNfVVFAHyr/wAOuP2Yv+iZ/wDlf1T/AOSaP+HXH7MX/RM//K/qn/yTX1VRQB8q/wDDrj9mL/omf/lf1T/5Jo/4dcfsxf8ARM//ACv6p/8AJNfVVFAHyr/w64/Zi/6Jn/5X9U/+SaP+HXH7MX/RM/8Ayv6p/wDJNfVVFAHyr/w64/Zi/wCiZ/8Alf1T/wCSaP8Ah1x+zF/0TP8A8r+qf/JNfVVFAHyr/wAOuP2Yv+iZ/wDlf1T/AOSaP+HXH7MX/RM//K/qn/yTX1VRQB8q/wDDrj9mL/omf/lf1T/5Jo/4dcfsxf8ARM//ACv6p/8AJNfVVFAHyr/w64/Zi/6Jn/5X9U/+SaP+HXH7MX/RM/8Ayv6p/wDJNfVVFAHyr/w64/Zi/wCiZ/8Alf1T/wCSaP8Ah1x+zF/0TP8A8r+qf/JNfVVFAHyr/wAOuP2Yv+iZ/wDlf1T/AOSaP+HXH7MX/RM//K/qn/yTX1VRQB8q/wDDrj9mL/omf/lf1T/5Jo/4dcfsxf8ARM//ACv6p/8AJNfVVFAHyr/w64/Zi/6Jn/5X9U/+SaP+HXH7MX/RM/8Ayv6p/wDJNfVVFAHyr/w64/Zi/wCiZ/8Alf1T/wCSaP8Ah1x+zF/0TP8A8r+qf/JNfVVFAHwr+0J/wTh/Z28D/AL4l+JNE+Hn2LWtH8M6nqFjc/23qMnkzxWskkb7XuCrYZQcMCDjkEV9K/snf8ms/Bv/ALEzRv8A0hho/ax/5NZ+Mn/Ymaz/AOkM1H7J3/JrPwb/AOxM0b/0hhoA9VooooAKKKKACiisTxf4QsfHGjNpeoz6pbWzOshk0fVrrTJ8jpia2ljkA9Ruwe4NAHzh/wA5Tf8AujP/ALnK+qq8U/4Y9+Gv/CVf8JPt8Yf8JJ9i/s3+2P8AhPde+2fZfM8z7P5323f5W/59mdu7nGa7vwP8K9F+Ht1c3Gl3viS6kuEEbrrnijU9WQAHPyJd3EqofdQCemaAOwooooAKKKKAPlX9gX/m43/ss3iP/wBt6+qq+Vf2Bf8Am43/ALLN4j/9t6+qqACiiigAooooAK+Vf2+v+bcv+yzeHP8A24r6qr5V/b6/5ty/7LN4c/8AbigD6qooooAKKKKACiiigAooooAKKKKACvKv2sf+TWfjJ/2Jms/+kM1eq15V+1j/AMms/GT/ALEzWf8A0hmoAP2Tv+TWfg3/ANiZo3/pDDXqteVfsnf8ms/Bv/sTNG/9IYa9VoAKKKKACiiigAooooAKKKKACiiigAooooAKKKKACiiigAr5V/4Kj/8AJifxN/7hn/p0tK+qq+Vf+Co//JifxN/7hn/p0tKAPqqiiigAooooAKKKKACiiigAooooAKKKKACiiigAooooAKKKKACiiigAooooAKKKKACiiigAooooAKKKKACiiigAooooAKKKKACiiigAooooAKKKKACiiigAooooAKKKKACiiigAooooAKKKKACiiigAooooAKKKKACiiigAooooAKKKKAPKv2sf+TWfjJ/2Jms/+kM1H7J3/JrPwb/7EzRv/SGGj9rH/k1n4yf9iZrP/pDNR+yd/wAms/Bv/sTNG/8ASGGgD1WiiigAooooAKKKxPF/gjw58QtGbSPFOgaX4l0lnWRrDWLKO7gLr91jHIpXI7HHFAG3RXwr/wAM9/Cz/h5J/wAIx/wrTwf/AMI3/wAKm/tL+x/7Btfsf2r+2PL+0eT5ezzdnyb8btvGcV9deB/g34B+GV1c3Xg/wP4b8J3N0gjnm0PSLezeVAchXMSKWAPODQB2FFFFABRRXCeL/gL8M/iFrLav4p+HXhPxLqzIsbX+saHa3c5RfuqZJELYHYZ4oA8Q/YF/5uN/7LN4j/8AbevqqvKv+GTvgh/0Rv4f/wDhL2P/AMar0Xw/4e0rwno1ppGiaZZ6NpNmnl21hp9ukEEKf3UjQBVHsBQBoUUUUAFFFFABXyr+31/zbl/2Wbw5/wC3FfVVfKv7fX/NuX/ZZvDn/txQB9VUUUUAFFFFABRRRQAUUUUAFFFFABXlX7WP/JrPxk/7EzWf/SGavVa8q/ax/wCTWfjJ/wBiZrP/AKQzUAH7J3/JrPwb/wCxM0b/ANIYa9Vryr9k7/k1n4N/9iZo3/pDDXqtABRRRQAUUUUAFFFFABRRRQAUUUUAFFFFABRRRQAUUUUAFfKv/BUf/kxP4m/9wz/06WlfVVfKv/BUf/kxP4m/9wz/ANOlpQB9VUUUUAFFFFABRRRQAUUUUAFFFFABRRRQAUUUUAFFFFABRRRQAUUUUAFFFFABRRRQAUUUUAFFFFABRRRQAUUUUAFFFFABRRRQAUUUUAFFFFABRRRQAUUUUAFFFFABRRRQAUUUUAFFFFABRRRQAUUUUAFFFFABRRRQAUUUUAFFFFABRRRQB5V+1j/yaz8ZP+xM1n/0hmrzT9mX9mX4Pa9+zb8KNT1P4T+B9R1K98JaTc3V5d+HLOWaeV7OJnkd2jJZmYklickkk16X+1j/AMms/GT/ALEzWf8A0hmo/ZO/5NZ+Df8A2Jmjf+kMNAB/wyd8EP8Aojfw/wD/AAl7H/41R/wyd8EP+iN/D/8A8Jex/wDjVeq0UAeVf8MnfBD/AKI38P8A/wAJex/+NUf8MnfBD/ojfw//APCXsf8A41XqtFAHlX/DJ3wQ/wCiN/D/AP8ACXsf/jVH/DJ3wQ/6I38P/wDwl7H/AONV6rWJ4v8AHHhz4e6M2r+Kdf0vw1pKusbX+sXsdpAHb7qmSRguT2GeaAPlDwT8PfCvw1/4KcS6Z4R8M6P4V02b4Pm5ks9EsIrOF5TrSqZCkaqCxVEG7GcKB2FfZVfCv/DQnws/4eSf8JP/AMLL8H/8I3/wqb+zf7Y/t61+x/av7Y8z7P53mbPN2fPszu284xX114H+MngH4m3Vza+D/HHhvxZc2qCSeHQ9Xt7x4kJwGcROxUE8ZNAHYUUUUAFcJ4v+PXwz+HustpHin4i+E/DWrKiyNYaxrlraThG+6xjkcNg9jjmu7ooA8q/4ax+CH/RZPh//AOFRY/8Ax2vRfD/iLSvFmjWmr6JqdnrOk3ieZbX+nzpPBMn95JEJVh7g18y/sC/83G/9lm8R/wDtvX1VQAUUUUAFFFFABXyr+31/zbl/2Wbw5/7cV9VV8q/t9f8ANuX/AGWbw5/7cUAfVVFFFABRRRQAUUUUAFFFFABRRRQAV5V+1j/yaz8ZP+xM1n/0hmr1WvKv2sf+TWfjJ/2Jms/+kM1AB+yd/wAms/Bv/sTNG/8ASGGvVa8q/ZO/5NZ+Df8A2Jmjf+kMNeq0AFFFFABRRRQAUUUUAFFFFABRRRQAUUUUAFFFFABRRRQAV8q/8FR/+TE/ib/3DP8A06WlfVVfKv8AwVH/AOTE/ib/ANwz/wBOlpQB9VUUUUAFFFFABRRRQAUUUUAFFFFABRRRQAUUUUAFFFFABRRRQAUUUUAFFFFABRRRQAUUUUAFFFFABRRRQAUUUUAFFFFABRRRQAUUUUAFFFFABRRRQAUUUUAFFFFABRRRQAUUUUAFFFFABRRRQAUUUUAFFFFABRRRQAUUUUAFFFFABRRRQB5V+1j/AMms/GT/ALEzWf8A0hmo/ZO/5NZ+Df8A2Jmjf+kMNH7WP/JrPxk/7EzWf/SGaj9k7/k1n4N/9iZo3/pDDQB6rRRRQAUUUUAFFFYni/xfY+B9GbVNRg1S5tldYzHo+k3Wpz5PTENtFJIR6nbgdyKANuivFP8AhsL4a/8ACVf8Ixu8Yf8ACSfYv7S/sf8A4QLXvtn2XzPL+0eT9i3+Vv8Ak3427uM5ru/A/wAVNF+IV1c2+l2XiS1kt0EjtrnhfU9JQgnHyPd28SufZSSOuKAOwooooAKKK4Txf8Z/D/gfWW0vUdP8WXNyqLIZNH8HavqcGD0xNbWskZPqA2R3AoA+W/2O/i9oXgHVf2iNP1Ow8UXVxJ8YPEU6vonhPVdVhCloFAMtpbSorZU/IWDAEEjDAn6K/wCGlvCP/QI+IH/huPEP/wAg18//ALIfxEg+F/8Awur/AISfwp8QNM/4SL4m634h0v8A4oDXZftFhceT5M37uzbbu2N8rYYY5Ar7F8P65beJdGtNUtI7yG2uk8yOPULKaznA/wBuGZEkjPs6g+1AHnX/AA0t4R/6BHxA/wDDceIf/kGj/hpbwj/0CPiB/wCG48Q//INeq0UAeVf8NLeEf+gR8QP/AA3HiH/5Bo/4aW8I/wDQI+IH/huPEP8A8g16rRQB5V/w0t4R/wCgR8QP/DceIf8A5Br51/bE+L2hePtV/Z30/TLDxRa3Efxg8Ozs+t+E9V0qEqGnUgS3dtEjNlh8gYsQCQMKSPt+vlX9vr/m3L/ss3hz/wBuKAPqqiiigAooooAKKKKACiiigAooooAK8q/ax/5NZ+Mn/Ymaz/6QzV6rXlX7WP8Ayaz8ZP8AsTNZ/wDSGagA/ZO/5NZ+Df8A2Jmjf+kMNeq15V+yd/yaz8G/+xM0b/0hhr1WgAooooAKKKKACiiigAooooAKKKKACiiigAooooAKKKKACvlX/gqP/wAmJ/E3/uGf+nS0r6qr5V/4Kj/8mJ/E3/uGf+nS0oA+qqKKKACiiigAooooAKKKKACiiigAooooAKKKKACiiigAooooAKKKKACiiigAooooAKKKKACiiigAooooAKKKKACiiigAooooAKKKKACiiigAooooAKKKKACiiigAooooAKKKKACiiigAooooAKKKKACiiigAooooAKKKKACiiigAooooA8q/ax/5NZ+Mn/Ymaz/6QzV5p+zL8WPFGm/s2/Ci0t/gx441S3g8JaTFHfWl5oSw3KrZxASIJNTRwrAbgHRWwRlQcivS/wBrH/k1n4yf9iZrP/pDNR+yd/yaz8G/+xM0b/0hhoAP+FyeLv8AohPxA/8AA7w9/wDLWj/hcni7/ohPxA/8DvD3/wAta9VooA8q/wCFyeLv+iE/ED/wO8Pf/LWj/hcni7/ohPxA/wDA7w9/8ta9VooA8q/4XJ4u/wCiE/ED/wADvD3/AMtaP+FyeLv+iE/ED/wO8Pf/AC1r1WsTxf4gvvDWjNe6d4a1TxZch1Qabo8lrHOQerA3M8MeB3+fPoDQB8oeCfE2o+Kv+CnEt3qfhPWPB1wnwfMS2Oty2Uk0ijWlIkBtLidNpLFcFw2VOVAwT9lV8f8Ak/Er/htD/hbv/Ck/GH/CN/8ACv8A/hFPsv8AaWg/bPtX9o/at+3+0tnlbOM7927+HHNfSHgfxxrXiy6uYtU+HviTwZHCgdJ9cuNMkSYk42oLS8nYEdfmCj3oA7CiiigAoorhPF/xF8QeGtZay074XeLPFlsEVhqWj3WkRwEnqoFzfwyZHfKY9CaAO7or5/8AAP7W0/xQ/wCEj/4Rn4OfEDU/+Ed1q58Pap++0OL7Pf2+3zof3mpru271+Zcqc8E17h4f1O51jRrS9u9JvNCuZk3SabqDwtPbn+65hkkjJ/3HYe9AGhRRRQAUUUUAFfKv7fX/ADbl/wBlm8Of+3FfVVfKv7fX/NuX/ZZvDn/txQB9VUUUUAFFFFABRRRQAUUUUAFFFFABXlX7WP8Ayaz8ZP8AsTNZ/wDSGavVa8q/ax/5NZ+Mn/Ymaz/6QzUAH7J3/JrPwb/7EzRv/SGGvVa8q/ZO/wCTWfg3/wBiZo3/AKQw16rQAUUUUAFFFFABRRRQAUUUUAFFFFABRRRQAUUUUAFFFFABXyr/AMFR/wDkxP4m/wDcM/8ATpaV9VV8q/8ABUf/AJMT+Jv/AHDP/TpaUAfVVFFFABRRRQAUUUUAFFFFABRRRQAUUUUAFFFFABRRRQAUUUUAFFFFABRRRQAUUUUAFFFFABRRRQAUUUUAFFFFABRRRQAUUUUAFFFFABRRRQAUUUUAFFFFABRRRQAUUUUAFFFFABRRRQAUUUUAFFFFABRRRQAUUUUAFFFFABRRRQAUUUUAeVftY/8AJrPxk/7EzWf/AEhmo/ZO/wCTWfg3/wBiZo3/AKQw0ftY/wDJrPxk/wCxM1n/ANIZqP2Tv+TWfg3/ANiZo3/pDDQB6rRRRQAUUUUAFFFYni+78R2WjNL4W0rS9Z1beoW11jU5NPgKfxEyx287AjsPL59RQBt0V81f8NHfFP8A4X7/AMKi/wCFZeD/APhJP+EZ/wCEr+1f8JxdfY/sv2r7Ls3f2Tv83fzjZt2/xZ4r2XwPqnj/AFC6uV8YeGfDehWyoDBJofiK41N5HzyHWWxtggx3DN9B1oA7CiiigAooooA+Vf2Bf+bjf+yzeI//AG3r6qr5V/YF/wCbjf8Ass3iP/23r6qoAKK5n4e+OIPiFoN1qlvbSWkdvq2p6SY5WBJeyv57N347M1uWHoGFdNQAUVzPwx8cQfE34beE/GFrbSWVt4h0m01aK2mYM8STwpKEYjgkBwDj0rpqACvlX9vr/m3L/ss3hz/24r6qr5V/b6/5ty/7LN4c/wDbigD6qooooAKKKKACiiigAooooAKKKKACvKv2sf8Ak1n4yf8AYmaz/wCkM1eq15V+1j/yaz8ZP+xM1n/0hmoAP2Tv+TWfg3/2Jmjf+kMNeq15V+yd/wAms/Bv/sTNG/8ASGGvVaACiiigAooooAKKKKACiiigAooooAKKKKACiiigAooooAK+Vf8AgqP/AMmJ/E3/ALhn/p0tK+qq+Vf+Co//ACYn8Tf+4Z/6dLSgD6qooooAKKKKACiiigAooooAKKKKACiiigAooooAKKKKACiiigAooooAKKKKACiiigAooooAKKKKACiiigAooooAKKKKACiiigAooooAKKKKACiiigAooooAKKKKACiiigAooooAKKKKACiiigAooooAKKKKACiiigAooooAKKKKACiiigDyr9rH/k1n4yf9iZrP/pDNXmn7Muv/ABhh/Zt+FEemeBfA95pq+EtJW1uLvxpeQTSxCzi2O8a6S4RiuCVDuASQGbGT6X+1j/yaz8ZP+xM1n/0hmo/ZO/5NZ+Df/YmaN/6Qw0AH/CSfG/8A6J58P/8AwvL7/wCU1H/CSfG//onnw/8A/C8vv/lNXqtFAHlX/CSfG/8A6J58P/8AwvL7/wCU1H/CSfG//onnw/8A/C8vv/lNXqtFAHlX/CSfG/8A6J58P/8AwvL7/wCU1H/CSfG//onnw/8A/C8vv/lNXqtFAHxr4JvvFV9/wU4lk8XaNo+h6kPg+Vjt9E1aXUoWi/tpcOZJLW3IbcXG3YQAAdxyQPsqvlX/AJym/wDdGf8A3OV9VUAFFFFABRRRQB8Qfsd6t8RbHVf2iI/CPhXwvrmmn4weImkuNb8S3OmzLLugygjj0+4BXaEO7eCSSNowCfor/hJPjf8A9E8+H/8A4Xl9/wDKavKv2Bf+bjf+yzeI/wD23r6qoA8f/ZTkvpvhLdyanb29nqTeLfFLXVvaTtPDFKfEGob0SRkQuobIDFEJABKrnA9grmfh74Hg+Hug3Wl29zJdx3GranqxklUAh72/nvHTjsrXBUeoUV01AHy/+zLr/wAYYf2bfhRHpngXwPeaavhLSVtbi78aXkE0sQs4tjvGukuEYrglQ7gEkBmxk+l/8JJ8b/8Aonnw/wD/AAvL7/5TV1/wx8DwfDL4beE/B9rcyXtt4e0m00mK5mUK8qQQpEHYDgEhATj1rpqAPKv+Ek+N/wD0Tz4f/wDheX3/AMpq+df2xNW+It9qv7O8fi7wr4X0PTR8YPDrR3GieJbnUpml3T4QxyafbgLtLndvJBAG05JH2/Xyr+31/wA25f8AZZvDn/txQB9VUUUUAFFFFABRRRQAUUUUAFFFFABXlX7WP/JrPxk/7EzWf/SGavVa8q/ax/5NZ+Mn/Ymaz/6QzUAH7J3/ACaz8G/+xM0b/wBIYa9Vryr9k7/k1n4N/wDYmaN/6Qw16rQAUUUUAFFFFABRRRQAUUUUAFFFFABRRRQAUUUUAFFFFABXyr/wVH/5MT+Jv/cM/wDTpaV9VV8q/wDBUf8A5MT+Jv8A3DP/AE6WlAH1VRRRQAUUUUAFFFFABRRRQAUUUUAFFFFABRRRQAUUUUAFFFFABRRRQAUUUUAFFFFABRRRQAUUUUAFFFFABRRRQAUUUUAFFFFABRRRQAUUUUAFFFFABRRRQAUUUUAFFFFABRRRQAUUUUAFFFFABRRRQAUUUUAFFFFABRRRQAUUUUAFFFFAHlX7WP8Ayaz8ZP8AsTNZ/wDSGaj9k7/k1n4N/wDYmaN/6Qw0ftY/8ms/GT/sTNZ/9IZq80/Zl+E/ijUv2bfhRd2/xn8caXb3HhLSZY7G0s9CaG2VrOIiNDJpjuVUHaC7s2AMsTk0AfUFFeVf8Kb8Xf8ARdviB/4A+Hv/AJVUf8Kb8Xf9F2+IH/gD4e/+VVAHS/FTxxP8PfDFlqlvbR3clxrujaSY5WIAS91O2s3fjuq3BYepUV2FfNXxt+GniPw/4X8PX9/8WPGHia0h8Z+Fd+l6paaMlvPnX7BRvNvp8Uo2khhtkXlRnIyD9K0Acf448cT+E/E/w90uK2jnj8Ta7LpM0jsQYUTTL68Drjqd1mq89nPpXYV4p+0bo154g8UfBOwsNd1DwzdzeM5tmqaXHbvcQY0DWGOwXEUsR3AFTujbhjjBwRrf8Kb8Xf8ARdviB/4A+Hv/AJVUAeVf85Tf+6M/+5yvqqvjXwT4Z1Hwr/wU4ltNT8Wax4xuH+D5lW+1uKyjmjU60oEYFpbwJtBUtkoWyxyxGAPsqgAooooAKKKKAPlX9gX/AJuN/wCyzeI//bevqqviD9jvwDrvirVf2iLvTPiV4o8HW6fGDxFE1joltpUkMjBoCZCbuynfcQwXAcLhRhQck/RX/Cm/F3/RdviB/wCAPh7/AOVVAHqtFeVf8Kb8Xf8ARdviB/4A+Hv/AJVUf8Kb8Xf9F2+IH/gD4e/+VVAHqtFeVf8ACm/F3/RdviB/4A+Hv/lVR/wpvxd/0Xb4gf8AgD4e/wDlVQB6rXyr+31/zbl/2Wbw5/7cV6r/AMKb8Xf9F2+IH/gD4e/+VVfOv7YngHXfCuq/s73ep/ErxR4xt3+MHh2JbHW7bSo4Y2LTkSA2llA+4BSuC5XDHKk4IAPt+iiigAooooAKKKKACiiigAooooAK8q/ax/5NZ+Mn/Ymaz/6QzV6rXlX7WP8Ayaz8ZP8AsTNZ/wDSGagA/ZO/5NZ+Df8A2Jmjf+kMNeq15V+yd/yaz8G/+xM0b/0hhr1WgAooooAKKKKACiiigAooooAKKKKACiiigAooooAKKKKACvlX/gqP/wAmJ/E3/uGf+nS0r6qr5V/4Kj/8mJ/E3/uGf+nS0oA+qqKKKACiiigAooooAKKKKACiiigAooooAKKKKACiiigAooooAKKKKACiiigAooooAKKKKACiiigAooooAKKKKACiiigAooooAKKKKACiiigAooooAKKKKACiiigAooooAKKKKACiiigAooooAKKKKACiiigAooooAKKKKACiiigAooooA8q/ax/5NZ+Mn/Ymaz/6QzUfsnf8ms/Bv/sTNG/9IYaP2sf+TWfjJ/2Jms/+kM1H7J3/ACaz8G/+xM0b/wBIYaAPVaKKKAMTxf4Q07xxpMGnaosj20OoWOpoIn2nzrS6iuoTn0EsEeR3GR3rboooAxPEHhDTvEureGtRvVka58Pag+p2JR9oEzWtxaksP4h5V1Lx6kHtW3RWJ4v8IWPjjRm0vUZ9UtrZnWQyaPq11pk+R0xNbSxyAeo3YPcGgD5w/wCcpv8A3Rn/ANzlfVVeKf8ADHvw1/4Sr/hJ9vjD/hJPsX9m/wBsf8J7r32z7L5nmfZ/O+27/K3/AD7M7d3OM13fgf4V6L8Pbq5uNLvfEl1JcII3XXPFGp6sgAOfkS7uJVQ+6gE9M0AdhRRRQAVwni/4deIPEuste6d8UfFnhO2KKo03R7XSJIAR1YG5sJpMnvl8egFd3RQB8/8AgH9kmf4X/wDCR/8ACM/GP4gaZ/wkWtXPiHVP3Ohy/aL+42+dN+80xtu7YvyrhRjgCvcPD+mXOjaNaWV3q15rtzCm2TUtQSFZ7g/3nEMccYP+4ij2rQooAKKKKACiiigAr5V/b6/5ty/7LN4c/wDbivqqvlX9vr/m3L/ss3hz/wBuKAPqqiiigAooooAKKKKACiiigAooooAK8q/ax/5NZ+Mn/Ymaz/6QzV6rXlX7WP8Ayaz8ZP8AsTNZ/wDSGagA/ZO/5NZ+Df8A2Jmjf+kMNeq15V+yd/yaz8G/+xM0b/0hhr1WgAooooAKKKKACiiigAooooAKKKKACiiigAooooAKKKKACvlX/gqP/wAmJ/E3/uGf+nS0r6qr5V/4Kj/8mJ/E3/uGf+nS0oA+qqKKKACiiigAooooAKKKKACiiigAooooAKKKKACiiigAooooAKKKKACiiigAooooAKKKKACiiigAooooAKKKKACiiigAooooAKKKKACiiigAooooAKKKKACiiigAooooAKKKKACiiigAooooAKKKKACiiigAooooAKKKKACiiigAooooA8q/ax/5NZ+Mn/Ymaz/6QzUfsnf8ms/Bv/sTNG/9IYaP2sf+TWfjJ/2Jms/+kM1H7J3/ACaz8G/+xM0b/wBIYaAPVaKKKACiiigAoorE8X+ELHxxozaXqM+qW1szrIZNH1a60yfI6YmtpY5APUbsHuDQBt0V8Vf8K7g/4b6/4Vx/wlfxA/4Qz/hWf/CQ/wBmf8J/rv8Ax/8A9q+R53m/bPM/1Xy7d23vjPNfUvgf4V6L8Pbq5uNLvfEl1JcII3XXPFGp6sgAOfkS7uJVQ+6gE9M0AdhRRRQAVwni/wCDHh/xxrLapqOoeLLa5ZFjMej+MdX0yDA6YhtrqOMH1IXJ7k13dFAHxV+yH8O4Pih/wur/AISfxX8QNT/4R34m634e0v8A4r/XYvs9hb+T5MP7u8Xdt3t8zZY55Jr7F8P6HbeGtGtNLtJLya2tU8uOTUL2a9nI/wBuaZ3kkPu7E+9fMv7Av/Nxv/ZZvEf/ALb19VUAFFFFABRRRQAV8q/t9f8ANuX/AGWbw5/7cV9VV8q/t9f825f9lm8Of+3FAH1VRRRQAUUUUAFFFFABRRRQAUUUUAFeVftY/wDJrPxk/wCxM1n/ANIZq9Vryr9rH/k1n4yf9iZrP/pDNQAfsnf8ms/Bv/sTNG/9IYa9Vryr9k7/AJNZ+Df/AGJmjf8ApDDXqtABRRRQAUUUUAFFFFABRRRQAUUUUAFFFFABRRRQAUUUUAFfKv8AwVH/AOTE/ib/ANwz/wBOlpX1VXyr/wAFR/8AkxP4m/8AcM/9OlpQB9VUUUUAFFFFABRRRQAUUUUAFFFFABRRRQAUUUUAFFFFABRRRQAUUUUAFFFFABRRRQAUUUUAFFFFABRRRQAUUUUAFFFFABRRRQAUUUUAFFFFABRRRQAUUUUAFFFFABRRRQAUUUUAFFFFABRRRQAUUUUAFFFFABRRRQAUUUUAFFFFABRRRQB5V+1j/wAms/GT/sTNZ/8ASGaj9k7/AJNZ+Df/AGJmjf8ApDDR+1j/AMms/GT/ALEzWf8A0hmrzT9mX9pv4PaD+zb8KNM1P4r+B9O1Ky8JaTbXVnd+I7OKaCVLOJXjdGkBVlYEFSMggg0AfUFFeVf8NY/BD/osnw//APCosf8A47R/w1j8EP8Aosnw/wD/AAqLH/47QB6rRXlX/DWPwQ/6LJ8P/wDwqLH/AOO0f8NY/BD/AKLJ8P8A/wAKix/+O0Aeq0V5V/w1j8EP+iyfD/8A8Kix/wDjtH/DWPwQ/wCiyfD/AP8ACosf/jtAHlX/ADlN/wC6M/8Aucr6qr418E/ELwr8Sv8AgpxLqfhHxLo/irTYfg+baS80S/ivIUlGtKxjLxswDBXQ7c5wwPcV9lUAFFFFABRRRQB8q/sC/wDNxv8A2WbxH/7b19VV8q/sC/8ANxv/AGWbxH/7b19VUAFFFFABRRRQAV8q/t9f825f9lm8Of8AtxX1VXyr+31/zbl/2Wbw5/7cUAfVVFFFABRRRQAUUUUAFFFFABRRRQAV5V+1j/yaz8ZP+xM1n/0hmr1WvKv2sf8Ak1n4yf8AYmaz/wCkM1AB+yd/yaz8G/8AsTNG/wDSGGvVa8q/ZO/5NZ+Df/YmaN/6Qw16rQAUUUUAFFFFABRRRQAUUUUAFFFFABRRRQAUUUUAFFFFABXyr/wVH/5MT+Jv/cM/9OlpX1VXyr/wVH/5MT+Jv/cM/wDTpaUAfVVFFFABRRRQAUUUUAFFFFABRRRQAUUUUAFFFFABRRRQAUUUUAFFFFABRRRQAUUUUAFFFFABRRRQAUUUUAFFFFABRRRQAUUUUAFFFFABRRRQAUUUUAFFFFABRRRQAUUUUAFFFFABRRRQAUUUUAFFFFABRRRQAUUUUAFFFFABRRRQAUUUUAeVftY/8ms/GT/sTNZ/9IZqP2Tv+TWfg3/2Jmjf+kMNH7WP/JrPxk/7EzWf/SGaj9k7/k1n4N/9iZo3/pDDQB6rRRRQAUUUUAFFFFAHyr/zlN/7oz/7nK+qq+Vf+cpv/dGf/c5X1VQAUUUUAFFFFAHyr+wL/wA3G/8AZZvEf/tvX1VXxB+x38XtC8A6r+0Rp+p2Hii6uJPjB4inV9E8J6rqsIUtAoBltLaVFbKn5CwYAgkYYE/RX/DS3hH/AKBHxA/8Nx4h/wDkGgD1WivKv+GlvCP/AECPiB/4bjxD/wDINH/DS3hH/oEfED/w3HiH/wCQaAPVaK8q/wCGlvCP/QI+IH/huPEP/wAg0f8ADS3hH/oEfED/AMNx4h/+QaAPVa+Vf2+v+bcv+yzeHP8A24r1X/hpbwj/ANAj4gf+G48Q/wDyDXzr+2J8XtC8far+zvp+mWHii1uI/jB4dnZ9b8J6rpUJUNOpAlu7aJGbLD5AxYgEgYUkAH2/RRRQAUUUUAFFFFABRRRQAUUUUAFeVftY/wDJrPxk/wCxM1n/ANIZq9Vryr9rH/k1n4yf9iZrP/pDNQAfsnf8ms/Bv/sTNG/9IYa9Vryr9k7/AJNZ+Df/AGJmjf8ApDDXqtABRRRQAUUUUAFFFFABRRRQAUUUUAFFFFABRRRQAUUUUAFfKv8AwVH/AOTE/ib/ANwz/wBOlpX1VXyr/wAFR/8AkxP4m/8AcM/9OlpQB9VUUUUAFFFFABRRRQAUUUUAFFFFABRRRQAUUUUAFFFFABRRRQAUUUUAFFFFABRRRQAUUUUAFFFFABRRRQAUUUUAFFFFABRRRQAUUUUAFFFFABRRRQAUUUUAFFFFABRRRQAUUUUAFFFFABRRRQAUUUUAFFFFABRRRQAUUUUAFFFFABRRRQB5V+1j/wAms/GT/sTNZ/8ASGaj9k7/AJNZ+Df/AGJmjf8ApDDR+1j/AMms/GT/ALEzWf8A0hmo/ZO/5NZ+Df8A2Jmjf+kMNAHqtFFFABRRRQAUUVieL/F9j4H0ZtU1GDVLm2V1jMej6TdanPk9MQ20UkhHqduB3IoA+cP+cpv/AHRn/wBzlfVVfFX/AAsSD/hvr/hY/wDwinxA/wCEM/4Vn/wj39p/8IBrv/H/AP2r5/k+V9j8z/VfNu27e2c8V9S+B/ipovxCurm30uy8SWslugkdtc8L6npKEE4+R7u3iVz7KSR1xQB2FFFFABRRXCeL/jP4f8D6y2l6jp/iy5uVRZDJo/g7V9TgwemJra1kjJ9QGyO4FAHiH7Av/Nxv/ZZvEf8A7b19VV8Vfsh/ESD4X/8AC6v+En8KfEDTP+Ei+Jut+IdL/wCKA12X7RYXHk+TN+7s227tjfK2GGOQK+xfD+uW3iXRrTVLSO8htrpPMjj1Cyms5wP9uGZEkjPs6g+1AGhRRRQAUUUUAFfKv7fX/NuX/ZZvDn/txX1VXyr+31/zbl/2Wbw5/wC3FAH1VRRRQAUUUUAFFFFABRRRQAUUUUAFeVftY/8AJrPxk/7EzWf/AEhmr1WvKv2sf+TWfjJ/2Jms/wDpDNQAfsnf8ms/Bv8A7EzRv/SGGvVa8q/ZO/5NZ+Df/YmaN/6Qw16rQAUUUUAFFFFABRRRQAUUUUAFFFFABRRRQAUUUUAFFFFABXyr/wAFR/8AkxP4m/8AcM/9OlpX1VXyr/wVH/5MT+Jv/cM/9OlpQB9VUUUUAFFFFABRRRQAUUUUAFFFFABRRRQAUUUUAFFFFABRRRQAUUUUAFFFFABRRRQAUUUUAFFFFABRRRQAUUUUAFFFFABRRRQAUUUUAFFFFABRRRQAUUUUAFFFFABRRRQAUUUUAFFFFABRRRQAUUUUAFFFFABRRRQAUUUUAFFFFABRRRQB5V+1j/yaz8ZP+xM1n/0hmo/ZO/5NZ+Df/YmaN/6Qw0ftY/8AJrPxk/7EzWf/AEhmo/ZO/wCTWfg3/wBiZo3/AKQw0Aeq0UUUAFFFFABRRWJ4v8QX3hrRmvdO8Nap4suQ6oNN0eS1jnIPVgbmeGPA7/Pn0BoA26K+f/8Ahraf/han/CuP+FOfED/hM/7G/wCEh/szztD/AOPDz/I87zf7T8v/AFvy7d27vjHNeoeB/HGteLLq5i1T4e+JPBkcKB0n1y40yRJiTjagtLydgR1+YKPegDsKKKKACiiuE8X/ABF8QeGtZay074XeLPFlsEVhqWj3WkRwEnqoFzfwyZHfKY9CaAO7or5/8A/tbT/FD/hI/wDhGfg58QNT/wCEd1q58Pap++0OL7Pf2+3zof3mpru271+Zcqc8E17h4f1O51jRrS9u9JvNCuZk3SabqDwtPbn+65hkkjJ/3HYe9AGhRRRQAUUUUAFfKv7fX/NuX/ZZvDn/ALcV9VV8q/t9f825f9lm8Of+3FAH1VRRRQAUUUUAFFFFABRRRQAUUUUAFeVftY/8ms/GT/sTNZ/9IZq9Vryr9rH/AJNZ+Mn/AGJms/8ApDNQAfsnf8ms/Bv/ALEzRv8A0hhr1WvKv2Tv+TWfg3/2Jmjf+kMNeq0AFFFFABRRRQAUUUUAFFFFABRRRQAUUUUAFFFFABRRRQAV8q/8FR/+TE/ib/3DP/TpaV9VV8q/8FR/+TE/ib/3DP8A06WlAH1VRRRQAUUUUAFFFFABRRRQAUUUUAFFFFABRRRQAUUUUAFFFFABRRRQAUUUUAFFFFABRRRQAUUUUAFFFFABRRRQAUUUUAFFFFABRRRQAUUUUAFFFFABRRRQAUUUUAFFFFABRRRQAUUUUAFFFFABRRRQAUUUUAFFFFABRRRQAUUUUAFFFFAHlX7WP/JrPxk/7EzWf/SGavmr9nv/AIbC/wCFBfDT/hGP+FH/APCN/wDCM6Z/Zf8Aa39sfbPsv2WPyfP8v5PN2bd235d2ccV9K/tY/wDJrPxk/wCxM1n/ANIZqP2Tv+TWfg3/ANiZo3/pDDQB5V/xm9/1b/8A+Vyj/jN7/q3/AP8AK5X1VRQB8q/8Zvf9W/8A/lco/wCM3v8Aq3//AMrlfVVcp8Uv+E4/4QTU/wDhXH/CP/8ACZ/uvsH/AAlPn/2d/rU83zfI/ef6rzNu3+LbnjNAHyB4z+Nf7YXgf4sfDr4e39r8D5da8df2j/Zs9vHrDW8P2KBZ5fOYuGXKsAu1Wyeu0c16B/xm9/1b/wD+VyvP/GfwV/bC8cfFj4dfEK/uvgfDrXgX+0f7Ngt5NYW3m+2wLBL5ylCzYVQV2suD13Divf8A4K/8NF/8JVdf8Ld/4Vf/AMI39if7P/whX9o/bPtXmR7d/wBp+Tytnm5x827Z2zQBxXwQ+CHxhP7SWp/GH4w6n4HXUl8JL4TsNN8DpeGF4jefammla5wVZWG0BdwYP/Bs+f6goooAKKKKACiiuE8X6x8TLLWWi8LeEfCes6TsUrdax4putPnL/wAQMUenTqAOx8zn0FAHy3+x3q3xFsdV/aIj8I+FfC+uaafjB4iaS41vxLc6bMsu6DKCOPT7gFdoQ7t4JJI2jAJ+iv8AhJPjf/0Tz4f/APheX3/ymryr4BfC/wCN/wADf+Fj/wDFL/D/AFv/AITDxnqXi7/kcb63+yfa/L/0f/kEtv2eX9/5c5+6MV9NeH5tVuNGtJdbsrPTtWZM3Nrp9293BG/okrxRM49zGv0oA86/4ST43/8ARPPh/wD+F5ff/Kaj/hJPjf8A9E8+H/8A4Xl9/wDKavVaKAPKv+Ek+N//AETz4f8A/heX3/ymo/4ST43/APRPPh//AOF5ff8Aymr1WigDyr/hJPjf/wBE8+H/AP4Xl9/8pq+df2xNW+It9qv7O8fi7wr4X0PTR8YPDrR3GieJbnUpml3T4QxyafbgLtLndvJBAG05JH2/Xyr+31/zbl/2Wbw5/wC3FAH1VRRRQAUUUUAFFFFABRRRQAUUUUAFeVftY/8AJrPxk/7EzWf/AEhmr1WvKv2sf+TWfjJ/2Jms/wDpDNQAfsnf8ms/Bv8A7EzRv/SGGvVa8q/ZO/5NZ+Df/YmaN/6Qw16rQAUUUUAFFFFABRRRQAUUUUAFFFFABRRRQAUUUUAFFFFABXyr/wAFR/8AkxP4m/8AcM/9OlpX1VXyr/wVH/5MT+Jv/cM/9OlpQB9VUUUUAFFFFABRRRQAUUUUAFFFFABRRRQAUUUUAFFFFABRRRQAUUUUAFFFFABRRRQAUUUUAFFFFABRRRQAUUUUAFFFFABRRRQAUUUUAFFFFABRRRQAUUUUAFFFFABRRRQAUUUUAFFFFABRRRQAUUUUAFFFFABRRRQAUUUUAFFFFABRRRQB5V+1j/yaz8ZP+xM1n/0hmo/ZO/5NZ+Df/YmaN/6Qw0ftY/8AJrPxk/7EzWf/AEhmrzT9mXQfjDN+zb8KJNM8deB7PTW8JaS1rb3fgq8nmiiNnFsR5F1ZA7BcAsEQEgkKucAA+oKK8q/4Rz43/wDRQ/h//wCEHff/AC5o/wCEc+N//RQ/h/8A+EHff/LmgD1WivDPGGufF74Z2ekazq/ivwTr2lza9o+k3NjZeEryxneO91G2s2ZJm1SZUZBcbxmNgdmOM5HudABRRRQAUUUUAFFFFABRRRQAUUUUAFFFFABRRRQAV8q/t9f825f9lm8Of+3FfVVfKv7fX/NuX/ZZvDn/ALcUAfVVFFFABRRRQAUUUUAFFFFABRRRQAV5V+1j/wAms/GT/sTNZ/8ASGavVa8q/ax/5NZ+Mn/Ymaz/AOkM1AB+yd/yaz8G/wDsTNG/9IYa9Vryr9k7/k1n4N/9iZo3/pDDXqtABRRRQAUUUUAFFFFABRRRQAUUUUAFFFFABRRRQAUUUUAFfKv/AAVH/wCTE/ib/wBwz/06WlfVVfKv/BUf/kxP4m/9wz/06WlAH1VRRRQAUUUUAFFFFABRRRQAUUUUAFFFFABRRRQAUUUUAFFFFABRRRQAUUUUAFFFFABRRRQAUUUUAFFFFABRRRQAUUUUAFFFFABRRRQAUUUUAFFFFABRRRQAUUUUAFFFFABRRRQAUUUUAFFFFABRRRQAUUUUAFFFFABRRRQAUUUUAFFFFAHlX7WP/JrPxk/7EzWf/SGavNP2ZfhP4o1L9m34UXdv8Z/HGl29x4S0mWOxtLPQmhtlaziIjQyaY7lVB2gu7NgDLE5Nel/tY/8AJrPxk/7EzWf/AEhmrzT9mX4T+KNS/Zt+FF3b/GfxxpdvceEtJljsbSz0JobZWs4iI0MmmO5VQdoLuzYAyxOTQB6X/wAKb8Xf9F2+IH/gD4e/+VVH/Cm/F3/RdviB/wCAPh7/AOVVH/Cm/F3/AEXb4gf+APh7/wCVVH/Cm/F3/RdviB/4A+Hv/lVQB5/8bfhp4j8P+F/D1/f/ABY8YeJrSHxn4V36XqlpoyW8+dfsFG82+nxSjaSGG2ReVGcjIPtXxS8A/wDC0PAmp+GP+Ej8QeEvt3lf8TjwtffYtRt9kqSfuptrbd2zY3ByrMO9eFftB/CfxRYeA9Kln+M/jjUUbxb4YiENzZ6EFVn12wRZB5emKd0bMJFBO0si7lddyn0v/hTfi7/ou3xA/wDAHw9/8qqAPj/4qfs3654H/aT+Bnw9sP2g/jhNovjr+3f7SnuPGkjXEP2KzSeLyWEYVcsxDblbI6bTzX1V8Ff2Y/8AhS/iq61v/hbHxQ8d/aLJ7L+zvGviP+0bOPdJG/mpH5a4lHl7Q2eFdxjmvFfid4N1fwj+3Z+yp/avjvxB41+0f8JX5f8AbsGnRfZtulpny/sdpb53bhnfu+4uNvOftWgAooooAKK+f/gz8UvE/iz9rD9ovwbqup/avDfhP/hHP7Fsvs8SfZftVg8tx86qHfc6g/OzYxgYHFfQFABXCeL/AIdeIPEuste6d8UfFnhO2KKo03R7XSJIAR1YG5sJpMnvl8egFd3Xz/8Ash/FLxP8UP8AhdX/AAk2p/2n/wAI78Tdb8PaX/o8UX2ewt/J8mH92q7tu9vmbLHPJNAHn/7Mc3xK+NH/AAtj+2/jZ4wtf+ET+IGreFLH+z9N0FPMtbXyvLeXfprZlPmHcV2qcDCivrDw/plzo2jWlld6tea7cwptk1LUEhWe4P8AecQxxxg/7iKPavmX9gX/AJuN/wCyzeI//bevqqgAooooAKKKKACvlX9vr/m3L/ss3hz/ANuK+qq+Vf2+v+bcv+yzeHP/AG4oA+qqKKKACiiigAooooAKKKKACiiigAryr9rH/k1n4yf9iZrP/pDNXqteVftY/wDJrPxk/wCxM1n/ANIZqAD9k7/k1n4N/wDYmaN/6Qw16rXlX7J3/JrPwb/7EzRv/SGGvVaACiiigAooooAKKKKACiiigAooooAKKKKACiiigAooooAK+Vf+Co//ACYn8Tf+4Z/6dLSvqqvlX/gqP/yYn8Tf+4Z/6dLSgD6qooooAKKKKACiiigAooooAKKKKACiiigAooooAKKKKACiiigAooooAKKKKACiiigAooooAKKKKACiiigAooooAKKKKACiiigAooooAKKKKACiiigAooooAKKKKACiiigAooooAKKKKACiiigAooooAKKKKACiiigAr4K+EPwh8RftVeMvjd4i8RfG74seGX0P4jav4ZsNN8IeJRp1jDZWohEIEIiYBgr4LDG7G5ssWZvvWvlX9gX/AJuN/wCyzeI//begA/4YF/6uN/aA/wDC5/8AtFH/AAwL/wBXG/tAf+Fz/wDaK+qqKAPlX/hgX/q439oD/wALn/7RR/wwL/1cb+0B/wCFz/8AaK+qqKAPkrVv+Cd9jr2lXmman+0D8eNR029he2urO78aLLDPE6lXjdGtyGVlJBUjBBINGk/8E77HQdKs9M0z9oH48adptlClta2dp40WKGCJFCpGiLbgKqqAAoGAAAK+taKAPlX/AIYF/wCrjf2gP/C5/wDtFH/DAv8A1cb+0B/4XP8A9or6qooA+StS/wCCd9jrVulvqH7QPx4v7dJoblYrnxosirLFIssUgDW5AZJER1bqrKpGCAat/wDDAv8A1cb+0B/4XP8A9or6qooA+P8AUf8Agmzoesa9pGt3/wAdPjhe61o/nf2bqNx4vSS4svNUJL5Mht90e9QFbaRuAwcitb/hgX/q439oD/wuf/tFfVVFAH51f8M365/w2h/wqL/hoP44f8I3/wAK/wD+Er+1f8JpJ9s+1f2j9l2bvL2eVs5xs3bv4scV7X/wwL/1cb+0B/4XP/2ij/nKb/3Rn/3OV9VUAfFX7E3gH/hV/wC1h+1N4Y/4SPxB4t+w/wDCK/8AE48U3323UbjfYTyfvZtq7tu/YvAwqqO1fatZOneE9D0fXtX1uw0bT7LWtY8n+0tRt7VI7i98pSkXnSAbpNikqu4naDgYFa1ABX51fs3/ALMf/C6PFX7Qet/8LY+KHgT7P8WfENl/Z3grxH/Z1nJtkifzXj8tsynzNpbPKogxxX6K1k+H/Ceh+E/7S/sTRtP0b+0r2TUr7+z7VIPtV1JjzLiXYBvlbaNztljgZPFAH51/sh/sh/8ACff8Lq/4vV8YPDn9i/E3W9G/4kHir7L9v8nyf9Luv3R825fd88nG7avAxX0B/wAMC/8AVxv7QH/hc/8A2ij9gX/m43/ss3iP/wBt6+qqAPlX/hgX/q439oD/AMLn/wC0Uf8ADAv/AFcb+0B/4XP/ANor6qry+7/Zz8KXt1NcSat48WSZ2kZYfiFr8aAk5O1FvQqj0AAA6AUAfOHwR/Y7vviV8F/APi7U/wBoj48Qal4g8P6fqt1FaeN2WFJZ7aOV1QNCxChnOASTjGSetdr/AMMC/wDVxv7QH/hc/wD2ivT/AA9+y54G8J2umWmkXXjSwsdNSKKzsYfHuvC2hjjAEcaw/bdmxQoATG3AxjHFet0AfKv/AAwL/wBXG/tAf+Fz/wDaK8U/aQ/Zj/4Uv4q/Z81v/hbHxQ8d/aPiz4esv7O8a+I/7Rs490kr+akflriUeXtDZ4V3GOa/RWvlX9vr/m3L/ss3hz/24oA+qqKKKACiiigAooooAKKKKACiiigAryr9rH/k1n4yf9iZrP8A6QzV6rXlX7WP/JrPxk/7EzWf/SGagA/ZO/5NZ+Df/YmaN/6Qw16rXlX7J3/JrPwb/wCxM0b/ANIYa9VoAKKKKACiiigAooooAKKKKACiiigAooooAKKKKACiiigAr5V/4Kj/APJifxN/7hn/AKdLSvqqvlX/AIKj/wDJifxN/wC4Z/6dLSgD6qooooAKKKKACiiigAooooAKKKKACiiigAooooAKKKKACiiigAooooAKKKKACiiigAooooAKKKKACiiigAooooAKKKKACiiigAooooAKKKKACiiigAooooAKKKKACiiigAooooAKKKKACiiigAooooAKKKKACiiigAr5V/YF/wCbjf8Ass3iP/23r6qr5V/YF/5uN/7LN4j/APbegD6qooooAKKKKACiiigAooooAKKKKACiiigD5V/5ym/90Z/9zlfVVfGvjb4e+FfiV/wU4i0zxd4Z0fxVpsPwfFzHZ63YRXkKSjWmUSBJFYBgruN2M4Yjua91/wCGTvgh/wBEb+H/AP4S9j/8aoA0ND8QajcftEeNtElu5H0mz8LaDe29oT8kc013rCSuPdlt4Qf+uYr0WvCvhP8AD3wr8Nf2kviRpnhHwzo/hXTZvCXhu5ks9EsIrOF5Tea4pkKRqoLFUQbsZwoHYV7rQB51ofiDUbj9ojxtokt3I+k2fhbQb23tCfkjmmu9YSVx7stvCD/1zFei18/6t8J/BHxQ/am8a/8ACZeDfD/i37D4M8O/ZP7d0uC9+z777XN/l+ajbd2xM4xnauegrq/+GTvgh/0Rv4f/APhL2P8A8aoA8q/YF/5uN/7LN4j/APbevqqvkr/gnfpNjoOlftA6Zpllb6dptl8YPEFta2dpEsUMESLbKkaIoAVVUABQMAAAV9a0AFFFeX3f7LPwX1C6murr4Q+A7m5mdpJZpvDNkzyOTksxMWSSSSSaAPUKK+Zf2Wf2b/hLqH7O/wAIdduvhd4Ludbm8LaPey6lN4etGuZLg2kLmZpDHuLliWLE5zznNfTVABXyr+31/wA25f8AZZvDn/txX1VXyr+31/zbl/2Wbw5/7cUAfVVFFFABRRRQAUUUUAFFFFABRRRQAV5V+1j/AMms/GT/ALEzWf8A0hmr1WvKv2sf+TWfjJ/2Jms/+kM1AB+yd/yaz8G/+xM0b/0hhr1WvKv2Tv8Ak1n4N/8AYmaN/wCkMNeq0AFFFFABRRRQAUUUUAFFFFABRRRQAUUUUAFFFFABRRRQAV8q/wDBUf8A5MT+Jv8A3DP/AE6WlfVVfKv/AAVH/wCTE/ib/wBwz/06WlAH1VRRRQAUUUUAFFFFABRRRQAUUUUAFFFFABRRRQAUUUUAFFFFABRRRQAUUUUAFFFFABRRRQAUUUUAFFFFABRRRQAUUUUAFFFFABRRRQAUUUUAFFFFABRRRQAUUUUAFFFFABRRRQAUUUUAFFFFABRRRQAUUUUAFFFFABXyr+wL/wA3G/8AZZvEf/tvX1VXyr+wL/zcb/2WbxH/AO29AH1VRRRQAUUUUAFFFFABRRRQAUUUUAFYni/wR4c+IWjNpHinQNL8S6SzrI1hrFlHdwF1+6xjkUrkdjjitusTxf448OfD3Rm1fxTr+l+GtJV1ja/1i9jtIA7fdUySMFyewzzQBwv/AAyd8EP+iN/D/wD8Jex/+NV0vgf4N+AfhldXN14P8D+G/CdzdII55tD0i3s3lQHIVzEilgDzg1zX/DWPwQ/6LJ8P/wDwqLH/AOO10vgf4yeAfibdXNr4P8ceG/FlzaoJJ4dD1e3vHiQnAZxE7FQTxk0AdUtpAl1JdLDGtzIixvMEG9kUsVUnqQC7kDtuPqamqFbuB7qS1WaNrmNFkeEMN6oxYKxHUAlHAPfafQ1NQBCtpAl1JdLDGtzIixvMEG9kUsVUnqQC7kDtuPqa4rxf8Bfhn8QtZbV/FPw68J+JdWZFja/1jQ7W7nKL91TJIhbA7DPFdqt3A91JarNG1zGiyPCGG9UYsFYjqASjgHvtPoa4rxf8evhn8PdZbSPFPxF8J+GtWVFkaw1jXLW0nCN91jHI4bB7HHNAGL/wyd8EP+iN/D//AMJex/8AjVei+H/D2leE9GtNI0TTLPRtJs08u2sNPt0gghT+6kaAKo9gK86/4ax+CH/RZPh//wCFRY//AB2vRfD/AIi0rxZo1pq+ianZ6zpN4nmW1/p86TwTJ/eSRCVYe4NAGhRRRQB5ZN+yn8E7iV5Zfg94BkkdizO/hiyJYnkknyuTTf8Ahk74If8ARG/h/wD+EvY//Gq9VooA8q/4ZO+CH/RG/h//AOEvY/8AxqvnX9sT4I/Dr4a6r+zvqfhHwB4X8K6lN8YPDttJeaJo1tZzPEWnYxl40UlSyIducZUHsK+36+Vf2+v+bcv+yzeHP/bigD6qooooAKKKKACiiigAooooAKKKKACvKv2sf+TWfjJ/2Jms/wDpDNXqteVftY/8ms/GT/sTNZ/9IZqAD9k7/k1n4N/9iZo3/pDDXqteVfsnf8ms/Bv/ALEzRv8A0hhr1WgAooooAKKKKACiiigAooooAKKKKACiiigAooooAKKKKACvlX/gqP8A8mJ/E3/uGf8Ap0tK+qq+Vf8AgqP/AMmJ/E3/ALhn/p0tKAPqqiiigAooooAKKKKACiiigAooooAKKKKACiiigAooooAKKKKACiiigAooooAKKKKACiiigAooooAKKKKACiiigAooooAKKKKACiiigAooooAKKKKACiiigAooooAKKKKACiiigAooooAKKKKACiiigAooooAKKKKACvlX9gX/AJuN/wCyzeI//bevqqviD9jv4vaF4B1X9ojT9TsPFF1cSfGDxFOr6J4T1XVYQpaBQDLaW0qK2VPyFgwBBIwwJAPt+ivKv+GlvCP/AECPiB/4bjxD/wDINH/DS3hH/oEfED/w3HiH/wCQaAPVaK8q/wCGlvCP/QI+IH/huPEP/wAg0f8ADS3hH/oEfED/AMNx4h/+QaAPVaK8q/4aW8I/9Aj4gf8AhuPEP/yDR/w0t4R/6BHxA/8ADceIf/kGgD0XxD4g07wn4f1PW9Xu47DSdNtZb28u5jhIYY0LyO3sqqSfpWhXy/8AtNftB+F9a/Zt+K+n2+leOI7i78JatBG934B122hVms5VBeWSyVI1yeXdgqjJJABNfUFABWfrniDTvDVlHd6pdx2VtJdW9kkkp4M08yQQp9XlljQe7CtCvH/2rNTh0X4S2moXCXElvaeLfC08iWltJczMq+INPYhIo1Z5GwOERSzHAAJIFAHsFFeVf8NLeEf+gR8QP/DceIf/AJBo/wCGlvCP/QI+IH/huPEP/wAg0Ac/8WPHGneAf2kvhvqGp22sXVvJ4S8SQKmiaJe6rMGN5obAmK0ildVwp+cqFBIBOWAPQf8ADS3hH/oEfED/AMNx4h/+Qa5TSfiXpHxE/am8Ff2VZ+ILT7H4M8ReZ/bvhzUdI3b77Q8eX9sgi8z7pzs3bcrnG4Z+gKAPCvhP4407x9+0l8SNQ0y21i1t4/CXhuBk1vRL3SpiwvNcYkRXcUTsuGHzhSpIIBypA91rzrQ/D+o2/wC0R421uW0kTSbzwtoNlb3ZHySTQ3esPKg91W4hJ/66CvRaAPn/AFb4l6R8O/2pvGv9q2fiC7+2eDPDvl/2F4c1HV9uy+1zPmfY4JfL+8Mb9u7DYztOOr/4aW8I/wDQI+IH/huPEP8A8g1oaH4f1G3/AGiPG2ty2kiaTeeFtBsre7I+SSaG71h5UHuq3EJP/XQV6LQB8lf8E79Th1rSv2gdQt0uI7e7+MHiCeNLu2ktplVltmAeKRVeNsHlHUMpyCAQRX1rXyr+wL/zcb/2WbxH/wC29fVVABRRRQAUUUUAFfKv7fX/ADbl/wBlm8Of+3FfVVfKv7fX/NuX/ZZvDn/txQB9VUUUUAFFFFABRRRQAUUUUAFFFFABXlX7WP8Ayaz8ZP8AsTNZ/wDSGavVa8q/ax/5NZ+Mn/Ymaz/6QzUAH7J3/JrPwb/7EzRv/SGGvVa8q/ZO/wCTWfg3/wBiZo3/AKQw16rQAUUUUAFFFFABRRRQAUUUUAFFFFABRRRQAUUUUAFFFFABXyr/AMFR/wDkxP4m/wDcM/8ATpaV9VV8q/8ABUf/AJMT+Jv/AHDP/TpaUAfVVFFFABRRRQAUUUUAFFFFABRRRQAUUUUAFFFFABRRRQAUUUUAFFFFABRRRQAUUUUAFFFFABRRRQAUUUUAFFFFABRRRQAUUUUAFFFFABRRRQAUUUUAFFFFABRRRQAUUUUAFFFFABRRRQAUUUUAFFFFABRRRQAUUUUAFfKv7Av/ADcb/wBlm8R/+29fVVfKv7Av/Nxv/ZZvEf8A7b0AfVVFFFABRRRQAUUUUAedftIeH9R8Wfs7/FHRNItJL/VtS8LapZWdpCMvNNJaSpGi+7MwA+tei0UUAFedfHrw/qPiXwPplppdpJe3Mfinw3evHEMkQwa3YzzP9Eijkc+ymvRaKACiiigDyrxH/wAnTfDz/sTPE3/pdoNeq15V4j/5Om+Hn/YmeJv/AEu0GvVaACiiigAooooA+Vf2Bf8Am43/ALLN4j/9t6+qq+Vf2Bf+bjf+yzeI/wD23r6qoAKKKKACiiigAr5V/b6/5ty/7LN4c/8AbivqqvlX9vr/AJty/wCyzeHP/bigD6qooooAKKKKACiiigAooooAKKKKACvKv2sf+TWfjJ/2Jms/+kM1eq1xXxu8E33xK+C/j7wjpktvBqXiDw/qGlWst2zLCks9tJEjOVViFDOMkAnGcA9KAOf/AGTv+TWfg3/2Jmjf+kMNeq18a/D3wT+2h8NfAPhrwjpkvwHn03w/pltpVrLdtrTTPFBEsSM5VVBYqgyQAM5wB0roP+M3v+rf/wDyuUAfVVFfKv8Axm9/1b//AOVyj/jN7/q3/wD8rlAH1VRXyr/xm9/1b/8A+Vyj/jN7/q3/AP8AK5QB9VUV8q/8Zvf9W/8A/lco/wCM3v8Aq3//AMrlAH1VRXyr/wAZvf8AVv8A/wCVyj/jN7/q3/8A8rlAH1VRXyr/AMZvf9W//wDlco/4ze/6t/8A/K5QB9VUV8q/8Zvf9W//APlco/4ze/6t/wD/ACuUAfVVFfKv/Gb3/Vv/AP5XKP8AjN7/AKt//wDK5QB9VUV8q/8AGb3/AFb/AP8Alco/4ze/6t//APK5QB9VV8q/8FR/+TE/ib/3DP8A06WlH/Gb3/Vv/wD5XK8/+PXwV/bC/aJ+E+u/D3xJdfA+y0XWPI8+fS5NYjuF8qeOddjOjqMtEoOVPBPQ8gA+6qKKKACiiigAooooAKKKKACiiigAooooAKKKKACiiigAooooAKKKKACiiigAooooAKKKKACiiigAooooAKKKKACiiigAooooAKKKKACiiigAooooAKKKKACiiigAooooAKKKKACiiigAooooAKKKKACiiigAooooAK+Vf2Bf+bjf+yzeI/8A23r6qr410D4IftM/BHxl8S1+Fup/CfVPCfi3xbfeLEk8XpqaX0Ut2IzJCVt8oFQoFByS2Nx27tigH2VRXyr/AMZvf9W//wDlco/4ze/6t/8A/K5QB9VUV8q/8Zvf9W//APlco/4ze/6t/wD/ACuUAfVVFfKv/Gb3/Vv/AP5XKP8AjN7/AKt//wDK5QB9VUV8q/8AGb3/AFb/AP8Alco/4ze/6t//APK5QB9VUV8q/wDGb3/Vv/8A5XKP+M3v+rf/APyuUAfVVFfKv/Gb3/Vv/wD5XKP+M3v+rf8A/wArlAHqviP/AJOm+Hn/AGJnib/0u0GvVa+Nb3wT+2hfePtG8XSS/AcalpWmX2lQRK2teS0V3LaSyMw25LBrKLaQQAGfIOQR0H/Gb3/Vv/8A5XKAPqqivlX/AIze/wCrf/8AyuUf8Zvf9W//APlcoA+qqK+Vf+M3v+rf/wDyuUf8Zvf9W/8A/lcoAP2Bf+bjf+yzeI//AG3r6qr4V+EPwV/bC+C//Ca/2JdfA+6/4SzxNe+K77+0JNYfy7q62eYkWxFxEPLG0NuYZOWNegf8Zvf9W/8A/lcoA+qqK+Vf+M3v+rf/APyuUf8AGb3/AFb/AP8AlcoA+qqK+Vf+M3v+rf8A/wArlH/Gb3/Vv/8A5XKAPqqvlX9vr/m3L/ss3hz/ANuKP+M3v+rf/wDyuVz+v/BD9pn43eMvhovxS1P4T6X4T8JeLbHxY8nhBNTe+lltBIY4QtxhCrlypOQVzuG7bsYA+yqKKKACiiigAooooAKKKKACiiigAooooAKKKKACiiigAooooAKKKKACiiigAooooAKKKKACiiigAooooAKKKKACiiigAooooAKKKKACiiigAooooAKKKKACiiigAooooAKKKKACiiigAooooAKKKKACiiigAooooAKKKKACiiigAooooAKKKKACiiigAooooAKKKKACiiigAooooAKKKKACiiigAooooAKKKKACiiigAooooAKKKKACiiigAooooAKKKKACiiigAooooAKKKKACiiigAooooAKKKKACiiigAooooAKKKKACiiigAooooAKKKKACiiigD//Z;imageBackground=none;fillStyle=dots;" vertex="1" parent="1">
          <mxGeometry x="-1130" y="-890" width="4813.34" height="3610" as="geometry" />
        </mxCell>
        <mxCell id="gGSf5Z8nFjBLewzf8c_W-18" value="" style="verticalLabelPosition=bottom;html=1;verticalAlign=top;align=center;shape=mxgraph.floorplan.wall;fillColor=strokeColor;" vertex="1" parent="1">
          <mxGeometry x="2680" y="-200" width="100" height="10" as="geometry" />
        </mxCell>
        <mxCell id="gGSf5Z8nFjBLewzf8c_W-25" value="" style="verticalLabelPosition=bottom;html=1;verticalAlign=top;align=center;shape=mxgraph.floorplan.doorUneven;dx=0.5;rotation=-90;" vertex="1" parent="1">
          <mxGeometry x="3470" y="2770" width="320" height="250" as="geometry" />
        </mxCell>
        <mxCell id="gGSf5Z8nFjBLewzf8c_W-26" value="" style="verticalLabelPosition=bottom;html=1;verticalAlign=top;align=center;shape=mxgraph.floorplan.wall;fillColor=strokeColor;direction=south;" vertex="1" parent="1">
          <mxGeometry x="3500" y="2620" width="10" height="110" as="geometry" />
        </mxCell>
        <mxCell id="gGSf5Z8nFjBLewzf8c_W-27" value="" style="verticalLabelPosition=bottom;html=1;verticalAlign=top;align=center;shape=mxgraph.floorplan.wall;fillColor=strokeColor;direction=south;" vertex="1" parent="1">
          <mxGeometry x="3500" y="3060" width="10" height="320" as="geometry" />
        </mxCell>
        <mxCell id="gGSf5Z8nFjBLewzf8c_W-28" value="" style="verticalLabelPosition=bottom;html=1;verticalAlign=top;align=center;shape=mxgraph.floorplan.wall;fillColor=strokeColor;" vertex="1" parent="1">
          <mxGeometry x="1060" y="3371" width="2450" height="10" as="geometry" />
        </mxCell>
        <mxCell id="gGSf5Z8nFjBLewzf8c_W-29" value="" style="verticalLabelPosition=bottom;html=1;verticalAlign=top;align=center;shape=mxgraph.floorplan.wall;fillColor=strokeColor;direction=south;" vertex="1" parent="1">
          <mxGeometry x="1060" y="800" width="10" height="2580" as="geometry" />
        </mxCell>
        <mxCell id="gGSf5Z8nFjBLewzf8c_W-30" value="" style="verticalLabelPosition=bottom;html=1;verticalAlign=top;align=center;shape=mxgraph.floorplan.wall;fillColor=strokeColor;" vertex="1" parent="1">
          <mxGeometry x="-2230" y="-570" width="9290" height="10" as="geometry" />
        </mxCell>
        <mxCell id="gGSf5Z8nFjBLewzf8c_W-31" value="" style="verticalLabelPosition=bottom;html=1;verticalAlign=top;align=center;shape=mxgraph.floorplan.wall;fillColor=strokeColor;" vertex="1" parent="1">
          <mxGeometry x="-2200" y="-1580" width="9280" height="10" as="geometry" />
        </mxCell>
        <mxCell id="gGSf5Z8nFjBLewzf8c_W-32" value="" style="verticalLabelPosition=bottom;html=1;verticalAlign=top;align=center;shape=mxgraph.floorplan.wall;fillColor=strokeColor;direction=west;rotation=-255;" vertex="1" parent="1">
          <mxGeometry x="3474.18" y="2178.03" width="5670" height="10" as="geometry" />
        </mxCell>
        <mxCell id="gGSf5Z8nFjBLewzf8c_W-33" value="&lt;font style=&quot;font-size: 180px;&quot;&gt;ул. Трефолева&lt;/font&gt;&lt;div&gt;&lt;br&gt;&lt;/div&gt;" style="text;html=1;align=center;verticalAlign=middle;resizable=0;points=[];autosize=1;strokeColor=none;fillColor=none;" vertex="1" parent="1">
          <mxGeometry x="1525" y="-1287" width="1260" height="240" as="geometry" />
        </mxCell>
        <mxCell id="gGSf5Z8nFjBLewzf8c_W-15" value="" style="verticalLabelPosition=bottom;html=1;verticalAlign=top;align=center;shape=mxgraph.floorplan.doorLeft;aspect=fixed;rotation=90;" vertex="1" parent="1">
          <mxGeometry x="3132.5" y="483.5" width="80" height="85" as="geometry" />
        </mxCell>
        <mxCell id="gGSf5Z8nFjBLewzf8c_W-39" value="" style="group;fillColor=light-dark(#000000,#512D2B);strokeColor=none;gradientDirection=radial;gradientColor=none;fillStyle=hatch;" vertex="1" connectable="0" parent="1">
          <mxGeometry x="3202.5" y="420" width="315" height="193.5" as="geometry" />
        </mxCell>
        <mxCell id="gGSf5Z8nFjBLewzf8c_W-3" value="" style="verticalLabelPosition=bottom;html=1;verticalAlign=top;align=center;shape=mxgraph.floorplan.window;rotation=90;" vertex="1" parent="gGSf5Z8nFjBLewzf8c_W-39">
          <mxGeometry x="280" y="91.75" width="60" height="10" as="geometry" />
        </mxCell>
        <mxCell id="gGSf5Z8nFjBLewzf8c_W-4" value="" style="verticalLabelPosition=bottom;html=1;verticalAlign=top;align=center;shape=mxgraph.floorplan.office_chair;rotation=-180;" vertex="1" parent="gGSf5Z8nFjBLewzf8c_W-39">
          <mxGeometry x="110" y="57" width="40" height="43" as="geometry" />
        </mxCell>
        <mxCell id="gGSf5Z8nFjBLewzf8c_W-5" value="" style="verticalLabelPosition=bottom;html=1;verticalAlign=top;align=center;shape=mxgraph.floorplan.table;" vertex="1" parent="gGSf5Z8nFjBLewzf8c_W-39">
          <mxGeometry x="70" y="3.5" width="90" height="50" as="geometry" />
        </mxCell>
        <mxCell id="gGSf5Z8nFjBLewzf8c_W-7" value="" style="verticalLabelPosition=bottom;html=1;verticalAlign=top;align=center;shape=mxgraph.floorplan.table;" vertex="1" parent="gGSf5Z8nFjBLewzf8c_W-39">
          <mxGeometry x="160" y="3.5" width="90" height="50" as="geometry" />
        </mxCell>
        <mxCell id="gGSf5Z8nFjBLewzf8c_W-10" value="" style="fontColor=#0066CC;verticalAlign=top;verticalLabelPosition=bottom;labelPosition=center;align=center;html=1;outlineConnect=0;fillColor=#CCCCCC;strokeColor=#6881B3;gradientColor=none;gradientDirection=north;strokeWidth=2;shape=mxgraph.networks.pc;" vertex="1" parent="gGSf5Z8nFjBLewzf8c_W-39">
          <mxGeometry x="75" y="8.5" width="50" height="40" as="geometry" />
        </mxCell>
        <mxCell id="gGSf5Z8nFjBLewzf8c_W-14" value="" style="verticalLabelPosition=bottom;html=1;verticalAlign=top;align=center;shape=mxgraph.floorplan.room;gradientColor=none;fillStyle=solid;fillColor=#000000;" vertex="1" parent="gGSf5Z8nFjBLewzf8c_W-39">
          <mxGeometry width="310" height="193.5" as="geometry" />
        </mxCell>
        <mxCell id="gGSf5Z8nFjBLewzf8c_W-16" value="" style="fontColor=#0066CC;verticalAlign=top;verticalLabelPosition=bottom;labelPosition=center;align=center;html=1;outlineConnect=0;fillColor=#CCCCCC;strokeColor=#6881B3;gradientColor=none;gradientDirection=north;strokeWidth=2;shape=mxgraph.networks.pc;" vertex="1" parent="gGSf5Z8nFjBLewzf8c_W-39">
          <mxGeometry x="170" y="8.5" width="50" height="40" as="geometry" />
        </mxCell>
        <mxCell id="gGSf5Z8nFjBLewzf8c_W-17" value="" style="verticalLabelPosition=bottom;html=1;verticalAlign=top;align=center;shape=mxgraph.floorplan.office_chair;rotation=-180;" vertex="1" parent="gGSf5Z8nFjBLewzf8c_W-39">
          <mxGeometry x="200" y="58.75" width="40" height="43" as="geometry" />
        </mxCell>
        <mxCell id="gGSf5Z8nFjBLewzf8c_W-40" value="&lt;font style=&quot;font-size: 64px;&quot;&gt;Каб. 203&lt;/font&gt;" style="text;html=1;align=center;verticalAlign=middle;resizable=0;points=[];autosize=1;strokeColor=none;fillColor=none;" vertex="1" parent="gGSf5Z8nFjBLewzf8c_W-39">
          <mxGeometry x="27.5" y="88" width="280" height="90" as="geometry" />
        </mxCell>
        <mxCell id="gGSf5Z8nFjBLewzf8c_W-42" value="&lt;font style=&quot;font-size: 64px;&quot;&gt;КЗ: 14м&lt;/font&gt;" style="shape=dimension;direction=south;whiteSpace=wrap;html=1;align=center;points=[];verticalAlign=top;labelBackgroundColor=none;horizontal=0;spacingTop=-15;strokeWidth=8;" vertex="1" parent="1">
          <mxGeometry x="3380" y="-300" width="40" height="725" as="geometry" />
        </mxCell>
        <mxCell id="gGSf5Z8nFjBLewzf8c_W-43" value="" style="endArrow=classic;startArrow=classic;html=1;rounded=0;entryX=0.601;entryY=1.529;entryDx=0;entryDy=0;entryPerimeter=0;strokeWidth=8;" edge="1" parent="1">
          <mxGeometry width="50" height="50" relative="1" as="geometry">
            <mxPoint x="3276.71" y="430" as="sourcePoint" />
            <mxPoint x="3270.000000000001" y="-554.71" as="targetPoint" />
          </mxGeometry>
        </mxCell>
        <mxCell id="gGSf5Z8nFjBLewzf8c_W-77" value="&lt;font style=&quot;font-size: 64px;&quot;&gt;Н: 15м&amp;nbsp; В:19м&lt;/font&gt;" style="edgeLabel;html=1;align=center;verticalAlign=middle;resizable=0;points=[];" vertex="1" connectable="0" parent="gGSf5Z8nFjBLewzf8c_W-43">
          <mxGeometry x="0.7557" y="3" relative="1" as="geometry">
            <mxPoint x="237" y="-25" as="offset" />
          </mxGeometry>
        </mxCell>
        <mxCell id="gGSf5Z8nFjBLewzf8c_W-45" value="" style="endArrow=classic;startArrow=classic;html=1;rounded=0;" edge="1" parent="1">
          <mxGeometry width="50" height="50" relative="1" as="geometry">
            <mxPoint x="2880" y="470" as="sourcePoint" />
            <mxPoint x="2930" y="420" as="targetPoint" />
          </mxGeometry>
        </mxCell>
        <mxCell id="gGSf5Z8nFjBLewzf8c_W-47" value="" style="endArrow=classic;startArrow=classic;html=1;rounded=0;exitX=0.036;exitY=0.414;exitDx=0;exitDy=0;exitPerimeter=0;entryX=0.094;entryY=0.928;entryDx=0;entryDy=0;entryPerimeter=0;strokeWidth=8;" edge="1" parent="1" source="gGSf5Z8nFjBLewzf8c_W-29" target="gGSf5Z8nFjBLewzf8c_W-14">
          <mxGeometry width="50" height="50" relative="1" as="geometry">
            <mxPoint x="1750" y="960" as="sourcePoint" />
            <mxPoint x="1800" y="910" as="targetPoint" />
          </mxGeometry>
        </mxCell>
        <mxCell id="gGSf5Z8nFjBLewzf8c_W-48" value="КЗ:42м" style="edgeLabel;html=1;align=center;verticalAlign=middle;resizable=0;points=[];fontSize=64;" vertex="1" connectable="0" parent="gGSf5Z8nFjBLewzf8c_W-47">
          <mxGeometry x="0.0384" y="3" relative="1" as="geometry">
            <mxPoint x="-889" y="262" as="offset" />
          </mxGeometry>
        </mxCell>
        <mxCell id="gGSf5Z8nFjBLewzf8c_W-49" value="" style="endArrow=classic;startArrow=classic;html=1;rounded=0;exitX=0.973;exitY=1.9;exitDx=0;exitDy=0;exitPerimeter=0;strokeWidth=7;" edge="1" parent="1" source="gGSf5Z8nFjBLewzf8c_W-28">
          <mxGeometry width="50" height="50" relative="1" as="geometry">
            <mxPoint x="3410" y="670" as="sourcePoint" />
            <mxPoint x="3460" y="620" as="targetPoint" />
          </mxGeometry>
        </mxCell>
        <mxCell id="gGSf5Z8nFjBLewzf8c_W-50" value="КЗ: 66м" style="edgeLabel;html=1;align=center;verticalAlign=middle;resizable=0;points=[];fontSize=64;" vertex="1" connectable="0" parent="gGSf5Z8nFjBLewzf8c_W-49">
          <mxGeometry x="0.7814" y="-1" relative="1" as="geometry">
            <mxPoint x="-142" y="1869" as="offset" />
          </mxGeometry>
        </mxCell>
        <mxCell id="gGSf5Z8nFjBLewzf8c_W-51" value="&lt;div&gt;&lt;font style=&quot;font-size: 180px;&quot;&gt;Баррикадная ул.&lt;/font&gt;&lt;/div&gt;" style="text;html=1;align=center;verticalAlign=middle;resizable=0;points=[];autosize=1;strokeColor=none;fillColor=none;rotation=-75;" vertex="1" parent="1">
          <mxGeometry x="6090" y="1480" width="1420" height="230" as="geometry" />
        </mxCell>
        <mxCell id="gGSf5Z8nFjBLewzf8c_W-52" value="" style="group;strokeWidth=18;" vertex="1" connectable="0" parent="1">
          <mxGeometry x="-70" y="-310" width="3645" height="3740" as="geometry" />
        </mxCell>
        <mxCell id="gGSf5Z8nFjBLewzf8c_W-19" value="" style="verticalLabelPosition=bottom;html=1;verticalAlign=top;align=center;shape=mxgraph.floorplan.wall;fillColor=#000000;direction=west;dashed=1;strokeWidth=1;strokeColor=none;dashPattern=1 4;perimeterSpacing=1;fillStyle=dots;" vertex="1" parent="gGSf5Z8nFjBLewzf8c_W-52">
          <mxGeometry width="3645" height="10" as="geometry" />
        </mxCell>
        <mxCell id="gGSf5Z8nFjBLewzf8c_W-20" value="" style="verticalLabelPosition=bottom;html=1;verticalAlign=top;align=center;shape=mxgraph.floorplan.wall;fillColor=#000000;direction=south;fillStyle=dots;strokeColor=none;" vertex="1" parent="gGSf5Z8nFjBLewzf8c_W-52">
          <mxGeometry width="10" height="1170" as="geometry" />
        </mxCell>
        <mxCell id="gGSf5Z8nFjBLewzf8c_W-21" value="" style="verticalLabelPosition=bottom;html=1;verticalAlign=top;align=center;shape=mxgraph.floorplan.wall;fillColor=#000000;direction=west;dashed=1;strokeWidth=1;strokeColor=none;dashPattern=1 4;perimeterSpacing=1;fillStyle=dots;" vertex="1" parent="gGSf5Z8nFjBLewzf8c_W-52">
          <mxGeometry y="1160" width="1130" height="10" as="geometry" />
        </mxCell>
        <mxCell id="gGSf5Z8nFjBLewzf8c_W-22" value="" style="verticalLabelPosition=bottom;html=1;verticalAlign=top;align=center;shape=mxgraph.floorplan.wall;fillColor=#000000;direction=south;fillStyle=dots;strokeColor=none;" vertex="1" parent="gGSf5Z8nFjBLewzf8c_W-52">
          <mxGeometry x="1120" y="1170" width="10" height="2570" as="geometry" />
        </mxCell>
        <mxCell id="gGSf5Z8nFjBLewzf8c_W-23" value="" style="verticalLabelPosition=bottom;html=1;verticalAlign=top;align=center;shape=mxgraph.floorplan.wall;fillColor=#000000;direction=west;dashed=1;strokeWidth=15;strokeColor=none;dashPattern=1 4;perimeterSpacing=1;fillStyle=dots;" vertex="1" parent="gGSf5Z8nFjBLewzf8c_W-52">
          <mxGeometry x="1125" y="3730" width="2510" height="10" as="geometry" />
        </mxCell>
        <mxCell id="gGSf5Z8nFjBLewzf8c_W-24" value="" style="verticalLabelPosition=bottom;html=1;verticalAlign=top;align=center;shape=mxgraph.floorplan.wall;fillColor=#000000;direction=south;fillStyle=dots;strokeColor=none;strokeWidth=13;" vertex="1" parent="gGSf5Z8nFjBLewzf8c_W-52">
          <mxGeometry x="3635" y="10" width="10" height="3730" as="geometry" />
        </mxCell>
        <mxCell id="gGSf5Z8nFjBLewzf8c_W-71" value="" style="endArrow=classic;html=1;rounded=0;strokeWidth=14;" edge="1" parent="gGSf5Z8nFjBLewzf8c_W-52">
          <mxGeometry width="50" height="50" relative="1" as="geometry">
            <mxPoint x="2190" y="1560" as="sourcePoint" />
            <mxPoint x="1380" y="3450" as="targetPoint" />
          </mxGeometry>
        </mxCell>
        <mxCell id="gGSf5Z8nFjBLewzf8c_W-72" value="&lt;font style=&quot;font-size: 64px;&quot;&gt;БС Сотовой связи - 450&amp;nbsp;&lt;/font&gt;&lt;span style=&quot;background-color: light-dark(#ffffff, var(--ge-dark-color, #121212)); color: light-dark(rgb(0, 0, 0), rgb(255, 255, 255)); font-size: 64px;&quot;&gt;м&lt;/span&gt;" style="edgeLabel;html=1;align=center;verticalAlign=middle;resizable=0;points=[];" vertex="1" connectable="0" parent="gGSf5Z8nFjBLewzf8c_W-71">
          <mxGeometry x="-0.6417" y="9" relative="1" as="geometry">
            <mxPoint x="-533" y="436" as="offset" />
          </mxGeometry>
        </mxCell>
        <mxCell id="gGSf5Z8nFjBLewzf8c_W-70" value="" style="fontColor=#0066CC;verticalAlign=top;verticalLabelPosition=bottom;labelPosition=center;align=center;html=1;outlineConnect=0;fillColor=#CCCCCC;strokeColor=#6881B3;gradientColor=none;gradientDirection=north;strokeWidth=2;shape=mxgraph.networks.radio_tower;" vertex="1" parent="gGSf5Z8nFjBLewzf8c_W-52">
          <mxGeometry x="1340" y="2510" width="220" height="350" as="geometry" />
        </mxCell>
        <mxCell id="gGSf5Z8nFjBLewzf8c_W-53" value="" style="whiteSpace=wrap;html=1;aspect=fixed;" vertex="1" parent="1">
          <mxGeometry x="3550" y="2160" width="80" height="80" as="geometry" />
        </mxCell>
        <mxCell id="gGSf5Z8nFjBLewzf8c_W-55" value="" style="rounded=0;whiteSpace=wrap;html=1;" vertex="1" parent="1">
          <mxGeometry x="3920" y="2481" width="1590" height="889" as="geometry" />
        </mxCell>
        <mxCell id="gGSf5Z8nFjBLewzf8c_W-58" value="" style="endArrow=classic;startArrow=classic;html=1;rounded=0;entryX=0.21;entryY=0.343;entryDx=0;entryDy=0;entryPerimeter=0;exitX=0.996;exitY=0.332;exitDx=0;exitDy=0;exitPerimeter=0;strokeWidth=5;" edge="1" parent="1" source="gGSf5Z8nFjBLewzf8c_W-14" target="gGSf5Z8nFjBLewzf8c_W-24">
          <mxGeometry width="50" height="50" relative="1" as="geometry">
            <mxPoint x="3510" y="480" as="sourcePoint" />
            <mxPoint x="2880" y="730" as="targetPoint" />
          </mxGeometry>
        </mxCell>
        <mxCell id="gGSf5Z8nFjBLewzf8c_W-59" value="&lt;font style=&quot;font-size: 64px;&quot;&gt;КЗ: 2м&lt;/font&gt;" style="edgeLabel;html=1;align=center;verticalAlign=middle;resizable=0;points=[];" vertex="1" connectable="0" parent="gGSf5Z8nFjBLewzf8c_W-58">
          <mxGeometry x="0.0416" relative="1" as="geometry">
            <mxPoint x="167" as="offset" />
          </mxGeometry>
        </mxCell>
        <mxCell id="gGSf5Z8nFjBLewzf8c_W-60" value="" style="fontColor=#0066CC;verticalAlign=top;verticalLabelPosition=bottom;labelPosition=center;align=center;html=1;outlineConnect=0;fillColor=#CCCCCC;strokeColor=#6881B3;gradientColor=none;gradientDirection=north;strokeWidth=2;shape=mxgraph.networks.radio_tower;" vertex="1" parent="1">
          <mxGeometry x="-810" y="-1450" width="220" height="350" as="geometry" />
        </mxCell>
        <mxCell id="gGSf5Z8nFjBLewzf8c_W-61" value="" style="endArrow=classic;html=1;rounded=0;strokeWidth=14;" edge="1" parent="1">
          <mxGeometry width="50" height="50" relative="1" as="geometry">
            <mxPoint x="290" y="-1110" as="sourcePoint" />
            <mxPoint x="-390" y="-1380" as="targetPoint" />
          </mxGeometry>
        </mxCell>
        <mxCell id="gGSf5Z8nFjBLewzf8c_W-63" value="&lt;font style=&quot;font-size: 64px;&quot;&gt;БС Сотовой связи - 222 м&lt;/font&gt;" style="edgeLabel;html=1;align=center;verticalAlign=middle;resizable=0;points=[];" vertex="1" connectable="0" parent="gGSf5Z8nFjBLewzf8c_W-61">
          <mxGeometry x="-0.6417" y="9" relative="1" as="geometry">
            <mxPoint x="-686" y="120" as="offset" />
          </mxGeometry>
        </mxCell>
        <mxCell id="gGSf5Z8nFjBLewzf8c_W-64" value="" style="fontColor=#0066CC;verticalAlign=top;verticalLabelPosition=bottom;labelPosition=center;align=center;html=1;outlineConnect=0;fillColor=#CCCCCC;strokeColor=#6881B3;gradientColor=none;gradientDirection=north;strokeWidth=2;shape=mxgraph.networks.radio_tower;" vertex="1" parent="1">
          <mxGeometry x="6110" y="-190" width="220" height="350" as="geometry" />
        </mxCell>
        <mxCell id="gGSf5Z8nFjBLewzf8c_W-65" value="" style="endArrow=classic;html=1;rounded=0;strokeWidth=14;" edge="1" parent="1">
          <mxGeometry width="50" height="50" relative="1" as="geometry">
            <mxPoint x="5070" y="80" as="sourcePoint" />
            <mxPoint x="6330" y="-376.5" as="targetPoint" />
          </mxGeometry>
        </mxCell>
        <mxCell id="gGSf5Z8nFjBLewzf8c_W-66" value="&lt;font style=&quot;font-size: 64px;&quot;&gt;БС Сотовой связи - 230&amp;nbsp;&lt;/font&gt;&lt;span style=&quot;font-size: 64px; background-color: light-dark(#ffffff, var(--ge-dark-color, #121212)); color: light-dark(rgb(0, 0, 0), rgb(255, 255, 255));&quot;&gt;м&lt;/span&gt;" style="edgeLabel;html=1;align=center;verticalAlign=middle;resizable=0;points=[];" vertex="1" connectable="0" parent="gGSf5Z8nFjBLewzf8c_W-65">
          <mxGeometry x="-0.6417" y="9" relative="1" as="geometry">
            <mxPoint x="367" y="90" as="offset" />
          </mxGeometry>
        </mxCell>
        <mxCell id="gGSf5Z8nFjBLewzf8c_W-67" value="" style="fontColor=#0066CC;verticalAlign=top;verticalLabelPosition=bottom;labelPosition=center;align=center;html=1;outlineConnect=0;fillColor=#CCCCCC;strokeColor=#6881B3;gradientColor=none;gradientDirection=north;strokeWidth=2;shape=mxgraph.networks.radio_tower;" vertex="1" parent="1">
          <mxGeometry x="3260" y="-1540" width="220" height="350" as="geometry" />
        </mxCell>
        <mxCell id="gGSf5Z8nFjBLewzf8c_W-68" value="" style="endArrow=classic;html=1;rounded=0;strokeWidth=14;" edge="1" parent="1">
          <mxGeometry width="50" height="50" relative="1" as="geometry">
            <mxPoint x="3080" y="-1050" as="sourcePoint" />
            <mxPoint x="3080" y="-1530" as="targetPoint" />
          </mxGeometry>
        </mxCell>
        <mxCell id="gGSf5Z8nFjBLewzf8c_W-69" value="&lt;font style=&quot;font-size: 64px;&quot;&gt;БС Сотовой связи - 115&amp;nbsp;&lt;/font&gt;&lt;span style=&quot;font-size: 64px; background-color: light-dark(#ffffff, var(--ge-dark-color, #121212)); color: light-dark(rgb(0, 0, 0), rgb(255, 255, 255));&quot;&gt;м&lt;/span&gt;" style="edgeLabel;html=1;align=center;verticalAlign=middle;resizable=0;points=[];" vertex="1" connectable="0" parent="gGSf5Z8nFjBLewzf8c_W-68">
          <mxGeometry x="-0.6417" y="9" relative="1" as="geometry">
            <mxPoint x="447" y="35" as="offset" />
          </mxGeometry>
        </mxCell>
        <mxCell id="gGSf5Z8nFjBLewzf8c_W-78" value="" style="endArrow=classic;startArrow=classic;html=1;rounded=0;strokeWidth=8;exitX=1.014;exitY=0.778;exitDx=0;exitDy=0;exitPerimeter=0;" edge="1" parent="1" source="gGSf5Z8nFjBLewzf8c_W-40">
          <mxGeometry width="50" height="50" relative="1" as="geometry">
            <mxPoint x="4336.71" y="1553.21" as="sourcePoint" />
            <mxPoint x="6500" y="1430" as="targetPoint" />
          </mxGeometry>
        </mxCell>
        <mxCell id="gGSf5Z8nFjBLewzf8c_W-79" value="&lt;font style=&quot;font-size: 64px;&quot;&gt;Н: 53м&amp;nbsp; В:56м&lt;/font&gt;" style="edgeLabel;html=1;align=center;verticalAlign=middle;resizable=0;points=[];" vertex="1" connectable="0" parent="gGSf5Z8nFjBLewzf8c_W-78">
          <mxGeometry x="0.7557" y="3" relative="1" as="geometry">
            <mxPoint x="-104" y="-223" as="offset" />
          </mxGeometry>
        </mxCell>
      </root>
    </mxGraphModel>
  </diagram>
</mxfile>
